<svg id="图层_1" data-name="图层 1" xmlns="http://www.w3.org/2000/svg" viewBox="0 0 59 59"><defs><style>.cls-1{fill:#2b4094;}.cls-2{fill:#fff;}</style></defs><circle class="cls-1" cx="29.5" cy="29.5" r="29.5"/><path class="cls-2" d="M358.12,256.91l-.34,0s.19,0,0,0l-.17,0a1.81,1.81,0,0,1-.31-.09.42.42,0,0,1-.12,0c.11,0,.12,0,0,0l-.06,0a1.91,1.91,0,0,1-.28-.15l-.13-.08a2.4,2.4,0,0,1-.46-.44s-.13-.18-.05-.06l-.05-.07c-.06-.09-.11-.18-.16-.27l-.06-.12s-.08-.2,0-.07,0-.06,0-.08l-.06-.18c0-.11-.05-.22-.07-.33s0,0,0,0a1,1,0,0,1,0-.17v-.18c0-.32,0-.64,0-1V231.32s0-.09,0-.14c0-.22,0,.14,0,0a2.47,2.47,0,0,1,.06-.29,1.07,1.07,0,0,1,.11-.37s-.09.18,0,0a.61.61,0,0,1,.07-.14l.14-.25a.57.57,0,0,1,.11-.16s-.13.15,0,0a2.27,2.27,0,0,1,.26-.28l.21-.19c.1-.09-.17.11,0,0l.11-.07a1.56,1.56,0,0,1,.28-.16l.15-.07-.07,0,.13-.05.25-.07c.05,0,.27,0,.32-.06s-.15,0,0,0h23.68l-.11,0,.14,0a2.14,2.14,0,0,1,.32.08s.38.12.15,0l.29.14.27.18s.14.08,0,0l.14.12.23.22.1.12c.06.07.13.09,0,0,.13.08.23.36.3.49l0,.06c0,.09,0,.08,0,0a.28.28,0,0,1,0,.12,1.58,1.58,0,0,1,.09.31l0,.13a.13.13,0,0,1,0,.06q0,.15,0,0a1.27,1.27,0,0,1,0,.34.88.88,0,0,0,1.76,0,4.16,4.16,0,0,0-4-4.11c-.31,0-.62,0-.93,0H358.57a5.31,5.31,0,0,0-2.19.39A4.17,4.17,0,0,0,354,231.5v22.86a4.15,4.15,0,0,0,4.12,4.3.88.88,0,1,0,0-1.75Z" transform="translate(-340.17 -213.5)"/><path class="cls-2" d="M358.12,233.73h15.3c.71,0,1.42,0,2.13,0h0a.89.89,0,0,0,0-1.77H360.27c-.7,0-1.42,0-2.12,0h0a.89.89,0,0,0,0,1.77ZM354.88,238h25.93c1.2,0,2.39,0,3.58,0h.05a.88.88,0,1,0,0-1.76H358.52c-1.2,0-2.4,0-3.59,0h-.05a.88.88,0,0,0,0,1.76Zm24.95-4.24a.89.89,0,1,0-.88-.89A.9.9,0,0,0,379.83,233.73Zm.78,16.39c0,.15,0,.29,0,.45s0,.13,0,.2,0,.09,0,.09,0-.18,0,0a5.9,5.9,0,0,1-.2.83,1.9,1.9,0,0,1-.14.4s.07-.15,0-.06l0,.08-.12.23a5.27,5.27,0,0,1-.43.72s-.16.21-.08.12-.05.06-.07.08-.2.23-.3.33l-.3.29-.15.13s-.2.16-.1.09l-.12.09-.16.1a2.14,2.14,0,0,1-.38.23l-.38.2-.1,0-.14.05a6.32,6.32,0,0,1-.85.24l-.2,0-.09,0s.17,0,0,0l-.44,0a5.67,5.67,0,0,1-.92,0c-.17,0,.15,0,0,0l-.23,0-.41-.1-.41-.13a.76.76,0,0,1-.21-.08s.15.07.06,0l-.11,0a5.08,5.08,0,0,1-.76-.42l-.32-.22c.15.1,0,0-.05,0l-.17-.15a5.76,5.76,0,0,1-.59-.62l-.07-.08-.07-.09c-.09-.12-.16-.25-.24-.38a2.64,2.64,0,0,1-.2-.37l-.09-.17-.05-.12c0-.1,0,0,0,0a1.91,1.91,0,0,1-.13-.36,4.16,4.16,0,0,1-.12-.44,3,3,0,0,1-.09-.43s0-.09,0-.09,0,.17,0,.06a2.11,2.11,0,0,1,0-.26,6.61,6.61,0,0,1,0-.89,1.94,1.94,0,0,1,0-.24c0-.17,0,.15,0,0a3.58,3.58,0,0,1,.09-.45,2.77,2.77,0,0,1,.12-.41,1.57,1.57,0,0,1,.14-.4s-.08.18,0,0l0-.09.09-.18.21-.39.23-.34.11-.16c-.11.16,0,0,.06-.08a5.39,5.39,0,0,1,.58-.59l.15-.13s.2-.16.1-.09l.09-.07.21-.14a5.8,5.8,0,0,1,.73-.4s.22-.09.1,0,.11,0,.14,0,.29-.1.44-.15l.38-.09.23,0,.1,0s-.18,0,0,0a7.16,7.16,0,0,1,.92,0l.41,0h.05c-.12,0,0,0,0,0l.23,0a6.32,6.32,0,0,1,.85.24.75.75,0,0,1,.18.07s-.15-.07-.06,0l.09,0,.4.21.36.21.16.11.1.07,0,0,.09.07.17.15a4,4,0,0,1,.3.29l.28.3a.79.79,0,0,0,.12.15c-.14-.17,0,0,.05.08a5.27,5.27,0,0,1,.43.72,1.24,1.24,0,0,1,.1.2s.09.21,0,.1l0,.14.08.21a6.82,6.82,0,0,1,.2.87c0,.17,0-.14,0,0a1.36,1.36,0,0,0,0,.2,4.1,4.1,0,0,1,0,.49.89.89,0,0,0,1.77,0,6.87,6.87,0,0,0-4.5-6.38,6.8,6.8,0,0,0-7.47,2,7,7,0,0,0-1.58,3.89,6.73,6.73,0,0,0,.94,4,6.88,6.88,0,0,0,7.2,3.15,6.78,6.78,0,0,0,5.3-5.49,9,9,0,0,0,.11-1.15.89.89,0,0,0-1.77,0Z" transform="translate(-340.17 -213.5)"/><path class="cls-2" d="M384.45,249.24H381.5a.88.88,0,0,0,0,1.76h2.95a.88.88,0,0,0,0-1.76Zm-14.76,0h-2.95a.88.88,0,0,0,0,1.76h2.95a.88.88,0,0,0,0-1.76Zm9.57-7.23-1.47,2.55a.89.89,0,0,0,.31,1.21.9.9,0,0,0,1.21-.32l1.47-2.56a.89.89,0,0,0-.31-1.2.9.9,0,0,0-1.21.32Zm-7.38,12.77-1.47,2.56a.88.88,0,1,0,1.52.89c.49-.85,1-1.71,1.47-2.56a.88.88,0,0,0-.31-1.2A.9.9,0,0,0,371.88,254.78Zm-1.47-11.88,1.47,2.56a.88.88,0,0,0,1.52-.89c-.48-.85-1-1.71-1.47-2.56a.88.88,0,1,0-1.52.89Zm7.38,12.78,1.47,2.55a.88.88,0,1,0,1.52-.88l-1.47-2.56a.88.88,0,1,0-1.52.89Zm5.78-24.22V243a.88.88,0,1,0,1.76,0V231.46a.88.88,0,1,0-1.76,0Zm-16.86,25.45h-8.59a.88.88,0,0,0,0,1.76h8.59a.88.88,0,0,0,0-1.76Z" transform="translate(-340.17 -213.5)"/></svg>