<?xml version="1.0" encoding="utf-8"?>
<!-- Generator: Adobe Illustrator 26.0.1, SVG Export Plug-In . SVG Version: 6.00 Build 0)  -->
<svg version="1.1" id="图层_1" xmlns="http://www.w3.org/2000/svg" xmlns:xlink="http://www.w3.org/1999/xlink" x="0px" y="0px"
	 viewBox="0 0 354.41 212.79" style="enable-background:new 0 0 354.41 212.79;" xml:space="preserve">
<style type="text/css">
	.st0{fill:url(#SVGID_1_);}
	.st1{fill:#2C3F95;}
	.st2{fill:none;stroke:#9D318D;stroke-miterlimit:10;}
	.st3{fill:#2A63A7;}
	.st4{fill:url(#SVGID_00000165954012996045263880000000377873193907974535_);}
	.st5{fill:url(#SVGID_00000123433827226002369030000012596763500474752138_);}
	.st6{fill:url(#SVGID_00000029045754421511434400000013408104462385795502_);}
	.st7{fill:url(#SVGID_00000070840415553670088200000003957623126980958385_);}
	.st8{fill:#FFFFFF;stroke:#FFFFFF;stroke-width:0.75;stroke-miterlimit:10;}
	.st9{fill:#FFFFFF;stroke:#FFFFFF;stroke-width:0.5;stroke-miterlimit:10;}
	.st10{fill:url(#SVGID_00000137115433248366548510000016498112569677910917_);}
	.st11{fill:url(#SVGID_00000180368781544711229060000002585402758699905435_);}
	.st12{fill:url(#SVGID_00000042698705333189483090000010696206326388268423_);}
	.st13{fill:url(#SVGID_00000132087427794951081060000012056462678178274995_);}
	.st14{fill:url(#SVGID_00000087400801220867306570000002485151164687444635_);}
	.st15{fill:#2C3F95;stroke:#2C3F95;stroke-width:0.75;stroke-miterlimit:10;}
	.st16{fill:url(#SVGID_00000024708621759491523130000010779086707809290155_);}
	.st17{fill:url(#SVGID_00000150067493112874625630000017541668096778311343_);}
	.st18{fill:url(#SVGID_00000083091015826445042510000005093786717436376510_);}
	.st19{fill:url(#SVGID_00000119835339698245029000000003249450524221545858_);}
	.st20{fill:url(#SVGID_00000078739145962280808280000004152685152539819144_);}
	.st21{fill:#2C3F95;stroke:#2C3F95;stroke-width:0.5;stroke-miterlimit:10;}
	.st22{fill:url(#SVGID_00000019677280280252015510000015161198898261440951_);}
	.st23{fill:url(#SVGID_00000169532592538476371900000015795168838567112100_);}
	.st24{fill:url(#SVGID_00000182522328160797272960000011542216792204058250_);}
	.st25{fill:url(#SVGID_00000030460297297424305600000010996786644804242838_);}
	.st26{fill:url(#SVGID_00000026131583316427239360000009734499376404074892_);}
</style>
<g>
	<linearGradient id="SVGID_1_" gradientUnits="userSpaceOnUse" x1="27.264" y1="-394.9602" x2="81.9317" y2="-355.3981">
		<stop  offset="0" style="stop-color:#036EB8"/>
		<stop  offset="0.021" style="stop-color:#466DAB"/>
		<stop  offset="0.0741" style="stop-color:#82678B"/>
		<stop  offset="0.1285" style="stop-color:#A75E6E"/>
		<stop  offset="0.1832" style="stop-color:#C05356"/>
		<stop  offset="0.2383" style="stop-color:#D14843"/>
		<stop  offset="0.2939" style="stop-color:#DC3E36"/>
		<stop  offset="0.3505" style="stop-color:#E3382E"/>
		<stop  offset="0.4095" style="stop-color:#E5352B"/>
		<stop  offset="0.6415" style="stop-color:#F8B62D"/>
		<stop  offset="0.7632" style="stop-color:#8FC31F"/>
	</linearGradient>
	<polygon class="st0" points="69.73,-375.83 69.57,-377.06 67.89,-377.21 66.43,-378.13 35.16,-404.42 33.01,-406.63 62.6,-355.6 
		64.97,-351.84 65.66,-351.62 66.12,-352.69 	"/>
	<path class="st1" d="M152.6-410.92l-18.11,17.14l-68.83,42.16l3.54-25.88c0,0,1.61,0.29,3.68-0.23l2.84-1.33l75.65-32.28l2.31-0.98
		c0,0-0.15,0.35-0.63,0.93C152.91-411.22,152.6-410.92,152.6-410.92z"/>
	<path class="st2" d="M126.44-435.67"/>
	<g>
		<path class="st3" d="M38.38-413.4"/>
	</g>
	<path class="st1" d="M69.23-377.57c-1.59-0.25-2.61-0.9-2.67-0.94c-10.63-8.46-31.17-25.37-32.83-28.81
		c-0.55-1.14-0.63-2.13-0.24-2.96c0.72-1.53,2.83-2.06,2.86-2.07l26.44-7.05c0.25-0.07,0.39-0.32,0.33-0.56
		c-0.07-0.25-0.32-0.39-0.56-0.33l-26.43,7.05c-0.1,0.03-2.55,0.64-3.46,2.57c-0.51,1.09-0.43,2.35,0.24,3.75
		c2.17,4.49,31.82,28.13,33.12,29.15c0.09,0.06,1.26,0.83,3.1,1.11L69.23-377.57L69.23-377.57z"/>
	<g>
		<path class="st1" d="M113.8-432.41c-0.2,0-0.39-0.14-0.44-0.34c-0.06-0.25,0.08-0.5,0.33-0.56l11.34-2.65
			c0.25-0.06,0.5,0.08,0.56,0.33c0.06,0.25-0.08,0.5-0.33,0.56l-11.34,2.65C113.87-432.41,113.83-432.41,113.8-432.41z"/>
	</g>
	<path class="st1" d="M74.56-377.54c4.56-2.22,77.16-32.98,77.89-33.29c0.04-0.02,0.08-0.04,0.12-0.08
		c0.07-0.06,1.63-1.43,1.61-3.33c-0.01-1.16-0.61-2.24-1.77-3.2c-3.48-2.87-13.83-12.31-13.93-12.4c-0.19-0.17-0.48-0.16-0.65,0.03
		c-0.17,0.19-0.16,0.48,0.03,0.65c0.1,0.09,10.47,9.54,13.97,12.43c0.94,0.78,1.43,1.62,1.44,2.49c0.02,1.3-1.01,2.36-1.25,2.58
		c-2.69,1.14-73.35,31.08-77.86,33.28c-1.9,0.93-3.61,1-4.93,0.8l0,0.01l-0.11,0.9c0.41,0.06,0.85,0.1,1.33,0.1
		C71.66-376.55,73.06-376.8,74.56-377.54z"/>
	<g>
		
			<linearGradient id="SVGID_00000169540316551578218700000014439062112083558818_" gradientUnits="userSpaceOnUse" x1="502.2039" y1="-290.0795" x2="510.4817" y2="-229.0695" gradientTransform="matrix(0.9984 -0.0568 0.0568 0.9984 -379.264 -147.2535)">
			<stop  offset="0" style="stop-color:#036EB8"/>
			<stop  offset="0.021" style="stop-color:#466DAB"/>
			<stop  offset="0.0741" style="stop-color:#82678B"/>
			<stop  offset="0.1285" style="stop-color:#A75E6E"/>
			<stop  offset="0.1832" style="stop-color:#C05356"/>
			<stop  offset="0.2383" style="stop-color:#D14843"/>
			<stop  offset="0.2939" style="stop-color:#DC3E36"/>
			<stop  offset="0.3505" style="stop-color:#E3382E"/>
			<stop  offset="0.4095" style="stop-color:#E5352B"/>
			<stop  offset="0.6415" style="stop-color:#F8B62D"/>
			<stop  offset="0.7632" style="stop-color:#8FC31F"/>
		</linearGradient>
		<path style="fill:url(#SVGID_00000169540316551578218700000014439062112083558818_);" d="M149.06-477.9
			c-1.1,8.96-8.16,48.53-31.95,66.95c-0.52,0.4-0.91,0.64-1.22,0.78c-0.37,0.17-0.8-0.03-0.93-0.39c-0.02-0.06-0.05-0.15-0.08-0.43
			c-0.97-8.46-2.72-17.42-7.31-24.77c-1.19-1.9-2.59-3.68-4.27-5.17c-1.47-1.31-3.03-2.1-4.98-2.41c-2.64-0.41-5.33,0.23-7.56,1.81
			c-6.43,4.53-11.27,13.32-14.68,21.8c-3.34,8.31-6.23,20.17-7.11,24.08l3.06-0.88c0.08-0.37,0.14-0.65,0.16-0.76
			c1-4.61,7.72-33.23,20.16-41.99c1.62-1.14,3.65-1.63,5.55-1.34c5.78,0.9,9.2,9.27,10.85,14.03c0.76,2.18,1.38,4.41,1.88,6.66
			c0.51,2.27,0.9,4.58,1.23,6.88c0.06,0.43,0.12,0.86,0.17,1.3c0.07,0.56,0.09,1.16,0.4,1.65c0.3,0.47,0.81,0.78,1.33,0.95
			c1.02,0.35,2.15,0.12,3.07-0.4c1.69-0.95,3.2-2.23,4.65-3.5c1.32-1.16,2.59-2.39,3.79-3.68c1.23-1.31,2.4-2.67,3.52-4.08
			c1.13-1.42,2.21-2.89,3.24-4.39c1.04-1.51,2.02-3.05,2.97-4.61c0.94-1.56,1.84-3.14,2.7-4.75c0.85-1.58,1.65-3.18,2.43-4.79
			c0.75-1.57,1.47-3.15,2.16-4.74c0.66-1.52,1.29-3.06,1.9-4.6c0.57-1.45,1.11-2.91,1.64-4.37c0.39-1.09,0.77-2.19,1.13-3.3
			c3.99-12.15,5.55-20.54,6.02-23.69L149.06-477.9z"/>
		
			<linearGradient id="SVGID_00000013898348039627106990000017255878668801526444_" gradientUnits="userSpaceOnUse" x1="524.0392" y1="-293.0421" x2="532.317" y2="-232.0321" gradientTransform="matrix(0.9984 -0.0568 0.0568 0.9984 -379.264 -147.2535)">
			<stop  offset="0.1455" style="stop-color:#036EB8"/>
			<stop  offset="0.4103" style="stop-color:#E5352B"/>
			<stop  offset="0.6415" style="stop-color:#F8B62D"/>
			<stop  offset="0.8744" style="stop-color:#8FC31F"/>
		</linearGradient>
		<path style="fill:url(#SVGID_00000013898348039627106990000017255878668801526444_);" d="M118.13-412.56
			c1.43-1.2,2.99-2.64,3.56-3.25c0.21-0.22,0.41-0.44,0.61-0.65c2.76-2.99,4.99-5.8,7.56-9.75c3.64-5.61,6.54-12.04,8.72-17.57
			c5.99-15.25,8.2-29.48,8.7-33.14l-2,1.12c-0.33,2.19-0.49,4.01-0.9,6.19c-0.75,4-1.78,8.19-2.82,12.12
			c-0.92,3.47-2.07,6.73-3.25,10.12c-1.03,2.97-2.16,5.91-3.42,8.8c-1.09,2.5-2.26,4.97-3.54,7.38c-1.23,2.32-2.65,4.53-4.11,6.7
			c-0.82,1.23-1.67,2.45-2.56,3.65c-0.86,1.1-1.11,1.56-1.86,2.4l-0.01-0.02c0.53-0.8,1.05-1.61,1.57-2.42
			c1.41-2.15,2.82-4.29,4.08-6.53c2.46-4.38,4.48-9.01,6.28-13.7c1.62-4.24,3.06-8.54,4.35-12.89c0.8-2.68,1.55-5.39,2.2-8.11
			c1.07-4.52,2.05-11.09,2.29-12.81l-2.23,1.21c-0.03,0.2-0.05,0.4-0.08,0.6c-0.29,2.12-0.65,4.23-1.05,6.33
			c-0.67,3.51-1.45,6.99-2.34,10.45c-1.13,4.39-2.45,8.74-3.96,13.02c-1.7,4.79-3.65,9.49-5.91,14.04c-1.66,3.32-3.51,6.5-5.53,9.59
			c-1.05,1.6-2.14,3.18-3.27,4.74c-0.44,0.6-0.88,1.2-1.31,1.8c-0.19,0.26-0.82,1.26-0.82,1.26c0.04-0.02,0.08-0.03,0.12-0.05
			C117.38-412.01,117.61-412.12,118.13-412.56z"/>
		
			<linearGradient id="SVGID_00000047054805971617189180000010836516719964513979_" gradientUnits="userSpaceOnUse" x1="491.3434" y1="-288.6059" x2="499.6211" y2="-227.5959" gradientTransform="matrix(0.9984 -0.0568 0.0568 0.9984 -379.264 -147.2535)">
			<stop  offset="0.1455" style="stop-color:#036EB8"/>
			<stop  offset="0.4103" style="stop-color:#E5352B"/>
			<stop  offset="0.6415" style="stop-color:#F8B62D"/>
			<stop  offset="0.8744" style="stop-color:#8FC31F"/>
		</linearGradient>
		<path style="fill:url(#SVGID_00000047054805971617189180000010836516719964513979_);" d="M100.69-438.19
			c-2.83-1.7-4.32-1.22-4.32-1.22c9.88,1.91,13.4,23.59,13.76,26.02c-0.07-0.14-0.3-0.68-0.84-2.47c-0.4-1.31-2.01-7.19-2.35-8.15
			c-1.33-3.84-2.96-7.81-4.69-10.3c-4.23-6.09-8.89-3.98-8.89-3.98c8.01-0.89,12.49,13.14,14.22,19.69s3.51,7.4,3.51,7.4
			C109.23-427.7,103.77-436.33,100.69-438.19z"/>
		
			<linearGradient id="SVGID_00000033367141873527555480000014516766123717616811_" gradientUnits="userSpaceOnUse" x1="467.7455" y1="-285.4042" x2="476.0232" y2="-224.3942" gradientTransform="matrix(0.9984 -0.0568 0.0568 0.9984 -379.264 -147.2535)">
			<stop  offset="0.1455" style="stop-color:#036EB8"/>
			<stop  offset="0.4103" style="stop-color:#E5352B"/>
			<stop  offset="0.6415" style="stop-color:#F8B62D"/>
			<stop  offset="0.8744" style="stop-color:#8FC31F"/>
		</linearGradient>
		<path style="fill:url(#SVGID_00000033367141873527555480000014516766123717616811_);" d="M70.97-410.79
			c0.66-1.96,1.36-3.9,2.1-5.83c0.57-1.5,1.17-2.98,1.8-4.46c0.48-1.12,0.97-2.23,1.49-3.33c1.27-2.71,2.8-5.31,4.41-7.83
			c1.43-2.22,2.97-4.39,4.71-6.37c1.38-1.56,2.9-3.06,4.68-4.16c0.25-0.16,0.51-0.3,0.78-0.44c4.45-2.3,9.37-0.25,9.37-0.25
			c-0.09-0.29-1.76-0.94-2.31-1.06c-0.79-0.17-1.6-0.31-2.4-0.36c-0.5-0.03-1-0.05-1.5-0.05c-0.21,0-0.42,0.01-0.63,0.02
			c-0.29,0.01-0.57,0.03-0.86,0.07c-0.33,0.04-0.66,0.09-0.99,0.15c-0.13,0.02-0.27,0.05-0.4,0.07c-0.18,0.04-0.35,0.07-0.52,0.11
			c-0.42,0.09-0.83,0.2-1.23,0.32c0,0,0,0,0,0c0,0,0,0,0,0c-0.19,0.06-0.37,0.11-0.55,0.17c-0.27,0.09-0.54,0.18-0.8,0.28
			c-0.6,0.23-1.19,0.49-1.77,0.78c-0.04,0.02-0.09,0.04-0.13,0.06c-0.28,0.14-0.56,0.29-0.83,0.45c-0.16,0.09-0.33,0.19-0.48,0.29
			c-0.19,0.11-0.38,0.24-0.57,0.36c-2.26,1.47-4.58,3.67-7.21,6.74c-7.1,8.29-17.68,37.57-18.64,42.41l2.98-0.97
			c1.15-5.36,4.68-14.89,8.09-23.9c3.5-9.23,8.99-18.89,16.61-23.92c0.11-0.07,0.22-0.15,0.34-0.22c0.31-0.2,0.63-0.38,0.95-0.56
			c0.13-0.07,0.25-0.14,0.38-0.21c0.16-0.09,0.32-0.18,0.48-0.26l0,0.01c-13.4,7.44-23.21,44.62-24.15,48.46l2.15-0.65
			c0.64-2.49,1.63-6.22,2.37-8.69C69.4-406,70.16-408.4,70.97-410.79z"/>
	</g>
	<g>
		<path class="st8" d="M134.27-377.63h6.84l-0.75,2.14h13.85v6.62h-7.54v2.88h8.66v6.74h-7.97c1.14,0.98,2.35,1.78,3.64,2.39
			c1.28,0.61,2.73,1.14,4.33,1.59v7.23c-2.67-0.61-4.95-1.42-6.82-2.42c-1.87-1-3.61-2.48-5.21-4.44c-1.64,1.96-3.38,3.44-5.21,4.44
			c-1.84,1-4.11,1.81-6.82,2.42v-7.23c1.6-0.45,3.05-0.98,4.33-1.59c1.28-0.61,2.49-1.41,3.64-2.39h-7.97V-366h8.56v-2.88h-8.61
			L134.27-377.63z M176.79-347.56v25.3H133.9v-25.3H176.79z M169.83-337.88v-3h-28.98v3H169.83z M169.83-328.94v-3h-28.98v3H169.83z
			 M157.59-375.8h20.48v25.73h-20.48V-375.8z M171.38-357.73v-10.41h-7.11v10.41H171.38z"/>
		<path class="st8" d="M213.84-340.58c-4.03-7.47-6.19-15.62-6.47-24.44h-2.73c-1.14,6.29-3.37,12.07-6.68,17.33h2.3v18.01h7.06v7.9
			h-13.96v-19.85c-3.24,3.63-7.01,6.64-11.28,9v-9.55c4.14-2.9,7.49-6.24,10.08-10.01c2.58-3.78,4.45-8.05,5.59-12.83h-15.13v-7.9
			h20.53v-4.9h7.06v4.9h20.53v7.9h-16.47c0.25,6.78,1.73,12.97,4.44,18.56l5.08-12.86h6.79l-5.35,13.54h-6.2
			c2.82,5.63,6.72,10.31,11.71,14.03v9.86C223.5-326.88,217.87-333.1,213.84-340.58z"/>
		<path class="st8" d="M235.82-352.15h5.03c0,10.53-0.64,20.07-1.93,28.6h-5.29C235.09-332.78,235.82-342.31,235.82-352.15z
			 M234.22-362.44h7.7v-5.33c-2.28,0.12-4.62,0.18-7.01,0.18v-7.47c5.7,0,12.01-0.59,18.93-1.78v7.53
			c-2.42,0.45-4.12,0.74-5.08,0.86v6h6.1v7.47h-6.1v4.65l5.99,3.37v8.76l-5.99-3.37v20.4h-6.47v-33.81h-8.07V-362.44z
			 M255.93-339.29l14.81-3.37v-34.18h6.95v32.65l5.29-1.23v8.21l-5.29,1.23v14.82h-6.95v-13.29l-14.81,3.37V-339.29z M256.41-359.44
			l10.8,4.29v7.66l-10.8-4.29V-359.44z M258.55-373.35l10.8,4.29v7.66l-10.8-4.29V-373.35z"/>
		<path class="st8" d="M285.07-348.11l5.56-1.53v-11.33h-5.03v-7.72h5.03v-8.51h6.95v8.51h5.08v7.72h-5.08v9.49l5.61-1.53v8.51
			l-5.61,1.53v21.19h-11.07v-7.41h4.12v-11.94l-5.56,1.53V-348.11z M313.3-335.62c-3.92-5.35-6.6-12.23-8.02-20.64h10.43v-8.21
			h-10.8v-7.47h10.8v-4.96h6.84v4.96h11.12v7.47h-11.12v8.21h10.48c-0.75,8-3.98,15.13-9.68,21.38c3.32,2.82,6.58,4.72,9.79,5.7
			v8.15c-6.2-2.82-11.14-5.86-14.81-9.13c-4.46,3.68-9.61,6.57-15.45,8.7v-8.15C306.9-331.49,310.38-333.49,313.3-335.62z
			 M318.44-339.96c2.78-2.9,4.85-5.96,6.2-9.19h-11.39C314.39-346.01,316.12-342.95,318.44-339.96z"/>
	</g>
	<g>
		<path class="st9" d="M132.52-307.07l4.17-6.46h-3.79v-0.85h5.04v0.6l-4.17,6.46h4.2v0.85h-5.45V-307.07z"/>
		<path class="st9" d="M145.78-314.38h1.01v3.31h3.68v-3.31h1.01v7.91h-1.01v-3.72h-3.68v3.72h-1.01V-314.38z"/>
		<path class="st9" d="M159.91-314.38h1.01v7.91h-1.01V-314.38z"/>
		<path class="st9" d="M179.3-309.53l-2.38-4.84H178l1.02,2.23c0.25,0.58,0.49,1.13,0.77,1.72h0.05c0.27-0.59,0.55-1.14,0.79-1.72
			l1.02-2.23h1.04l-2.38,4.84v3.07h-1.01V-309.53z"/>
		<path class="st9" d="M189.89-314.38h1.01v7.91h-1.01V-314.38z"/>
		<path class="st9" d="M209.65-313.53h-2.39v-0.85h5.79v0.85h-2.39v7.06h-1.01V-313.53z"/>
		<path class="st9" d="M220.73-314.38h4.56v0.85h-3.55v2.48h3v0.85h-3v2.88h3.67v0.85h-4.68V-314.38z"/>
		<path class="st9" d="M232.89-310.42c0-2.55,1.5-4.11,3.51-4.11c0.96,0,1.71,0.47,2.18,0.98l-0.55,0.66
			c-0.42-0.44-0.94-0.75-1.61-0.75c-1.49,0-2.49,1.22-2.49,3.2c0,1.99,0.95,3.23,2.45,3.23c0.76,0,1.33-0.33,1.83-0.89l0.55,0.63
			c-0.62,0.73-1.4,1.14-2.43,1.14C234.37-306.32,232.89-307.85,232.89-310.42z"/>
		<path class="st9" d="M246.5-314.38h1.01v3.31h3.68v-3.31h1.01v7.91h-1.01v-3.72h-3.68v3.72h-1.01V-314.38z"/>
		<path class="st9" d="M260.62-314.38h1.04l2.86,4.97l0.85,1.64h0.05c-0.05-0.8-0.13-1.69-0.13-2.52v-4.09h0.96v7.91h-1.04
			l-2.86-4.98l-0.85-1.63h-0.05c0.05,0.8,0.13,1.64,0.13,2.47v4.14h-0.96V-314.38z"/>
		<path class="st9" d="M274.22-310.45c0-2.53,1.39-4.07,3.38-4.07c1.99,0,3.38,1.54,3.38,4.07c0,2.53-1.39,4.13-3.38,4.13
			C275.62-306.32,274.22-307.92,274.22-310.45z M279.95-310.45c0-1.97-0.93-3.19-2.34-3.19c-1.41,0-2.34,1.22-2.34,3.19
			s0.93,3.24,2.34,3.24C279.02-307.21,279.95-308.48,279.95-310.45z"/>
		<path class="st9" d="M288.96-314.38h1.01v7.06h3.45v0.85h-4.46V-314.38z"/>
		<path class="st9" d="M300.31-310.45c0-2.53,1.39-4.07,3.38-4.07c1.99,0,3.38,1.54,3.38,4.07c0,2.53-1.39,4.13-3.38,4.13
			C301.7-306.32,300.31-307.92,300.31-310.45z M306.03-310.45c0-1.97-0.93-3.19-2.34-3.19c-1.41,0-2.34,1.22-2.34,3.19
			s0.93,3.24,2.34,3.24C305.1-307.21,306.03-308.48,306.03-310.45z"/>
		<path class="st9" d="M314.58-310.42c0-2.55,1.53-4.11,3.63-4.11c1.1,0,1.82,0.5,2.28,0.98l-0.55,0.66
			c-0.4-0.41-0.91-0.75-1.7-0.75c-1.59,0-2.62,1.22-2.62,3.2c0,1.99,0.94,3.23,2.63,3.23c0.57,0,1.11-0.17,1.43-0.46v-2.06H318
			v-0.83h2.59v3.33c-0.51,0.53-1.37,0.92-2.44,0.92C316.06-306.32,314.58-307.85,314.58-310.42z"/>
		<path class="st9" d="M330.02-309.53l-2.38-4.84h1.08l1.02,2.23c0.25,0.58,0.49,1.13,0.77,1.72h0.05c0.27-0.59,0.55-1.14,0.79-1.72
			l1.02-2.23h1.04l-2.38,4.84v3.07h-1.01V-309.53z"/>
	</g>
</g>
<g>
	
		<linearGradient id="SVGID_00000007391599965769381880000010795421465710344340_" gradientUnits="userSpaceOnUse" x1="16.1738" y1="-170.5566" x2="70.8415" y2="-130.9945">
		<stop  offset="0" style="stop-color:#036EB8"/>
		<stop  offset="0.021" style="stop-color:#466DAB"/>
		<stop  offset="0.0741" style="stop-color:#82678B"/>
		<stop  offset="0.1285" style="stop-color:#A75E6E"/>
		<stop  offset="0.1832" style="stop-color:#C05356"/>
		<stop  offset="0.2383" style="stop-color:#D14843"/>
		<stop  offset="0.2939" style="stop-color:#DC3E36"/>
		<stop  offset="0.3505" style="stop-color:#E3382E"/>
		<stop  offset="0.4095" style="stop-color:#E5352B"/>
		<stop  offset="0.6415" style="stop-color:#F8B62D"/>
		<stop  offset="0.7632" style="stop-color:#8FC31F"/>
	</linearGradient>
	<polygon style="fill:url(#SVGID_00000007391599965769381880000010795421465710344340_);" points="58.64,-151.43 58.48,-152.66 
		56.8,-152.81 55.34,-153.73 24.07,-180.02 21.92,-182.23 51.51,-131.19 53.88,-127.44 54.57,-127.22 55.03,-128.28 	"/>
	<path class="st1" d="M141.51-186.51l-18.11,17.14l-68.83,42.16l3.54-25.88c0,0,1.61,0.29,3.68-0.23l2.84-1.33l75.65-32.28
		l2.31-0.98c0,0-0.15,0.35-0.63,0.93C141.82-186.82,141.51-186.51,141.51-186.51z"/>
	<path class="st2" d="M115.35-211.26"/>
	<path class="st1" d="M58.14-153.16c-1.59-0.25-2.61-0.9-2.67-0.94c-10.63-8.46-31.17-25.37-32.83-28.81
		c-0.55-1.14-0.63-2.13-0.24-2.96c0.72-1.53,2.83-2.06,2.86-2.07l26.44-7.05c0.25-0.07,0.39-0.32,0.33-0.56
		c-0.07-0.25-0.32-0.39-0.56-0.33l-26.43,7.05c-0.1,0.03-2.55,0.64-3.46,2.57c-0.51,1.09-0.43,2.35,0.24,3.75
		c2.17,4.49,31.82,28.13,33.12,29.15c0.09,0.06,1.26,0.83,3.1,1.11L58.14-153.16L58.14-153.16z"/>
	<g>
		<path class="st1" d="M102.71-208c-0.2,0-0.39-0.14-0.44-0.34c-0.06-0.25,0.08-0.5,0.33-0.56l11.34-2.65
			c0.25-0.06,0.5,0.08,0.56,0.33c0.06,0.25-0.08,0.5-0.33,0.56l-11.34,2.65C102.78-208.01,102.74-208,102.71-208z"/>
	</g>
	<path class="st1" d="M63.47-153.13c4.56-2.22,77.16-32.98,77.89-33.29c0.04-0.02,0.08-0.04,0.12-0.08
		c0.07-0.06,1.63-1.43,1.61-3.33c-0.01-1.16-0.61-2.24-1.77-3.2c-3.48-2.87-13.83-12.31-13.93-12.4c-0.19-0.17-0.48-0.16-0.65,0.03
		c-0.17,0.19-0.16,0.48,0.03,0.65c0.1,0.09,10.47,9.54,13.97,12.43c0.94,0.78,1.43,1.62,1.44,2.49c0.02,1.3-1.01,2.36-1.25,2.58
		c-2.69,1.14-73.35,31.08-77.86,33.28c-1.9,0.93-3.61,1-4.93,0.8l0,0.01l-0.11,0.9c0.41,0.06,0.85,0.1,1.33,0.1
		C60.57-152.15,61.97-152.4,63.47-153.13z"/>
	<g>
		
			<linearGradient id="SVGID_00000165927295762578502730000015266473239767148678_" gradientUnits="userSpaceOnUse" x1="478.3785" y1="-66.6688" x2="486.6562" y2="-5.6588" gradientTransform="matrix(0.9984 -0.0568 0.0568 0.9984 -379.264 -147.2535)">
			<stop  offset="0" style="stop-color:#036EB8"/>
			<stop  offset="0.021" style="stop-color:#466DAB"/>
			<stop  offset="0.0741" style="stop-color:#82678B"/>
			<stop  offset="0.1285" style="stop-color:#A75E6E"/>
			<stop  offset="0.1832" style="stop-color:#C05356"/>
			<stop  offset="0.2383" style="stop-color:#D14843"/>
			<stop  offset="0.2939" style="stop-color:#DC3E36"/>
			<stop  offset="0.3505" style="stop-color:#E3382E"/>
			<stop  offset="0.4095" style="stop-color:#E5352B"/>
			<stop  offset="0.6415" style="stop-color:#F8B62D"/>
			<stop  offset="0.7632" style="stop-color:#8FC31F"/>
		</linearGradient>
		<path style="fill:url(#SVGID_00000165927295762578502730000015266473239767148678_);" d="M137.97-253.5
			c-1.1,8.96-8.16,48.53-31.95,66.95c-0.52,0.4-0.91,0.64-1.22,0.78c-0.37,0.17-0.8-0.03-0.93-0.39c-0.02-0.06-0.05-0.15-0.08-0.43
			c-0.97-8.46-2.72-17.42-7.31-24.77c-1.19-1.9-2.59-3.68-4.27-5.17c-1.47-1.31-3.03-2.1-4.98-2.41c-2.64-0.41-5.33,0.23-7.56,1.81
			c-6.43,4.53-11.27,13.32-14.68,21.8c-3.34,8.31-6.23,20.17-7.11,24.08l3.06-0.88c0.08-0.37,0.14-0.65,0.16-0.76
			c1-4.61,7.72-33.23,20.16-41.99c1.62-1.14,3.65-1.63,5.55-1.34c5.78,0.9,9.2,9.27,10.85,14.03c0.76,2.18,1.38,4.41,1.88,6.66
			c0.51,2.27,0.9,4.58,1.23,6.88c0.06,0.43,0.12,0.86,0.17,1.3c0.07,0.56,0.09,1.16,0.4,1.65c0.3,0.47,0.81,0.78,1.33,0.95
			c1.02,0.35,2.15,0.12,3.07-0.4c1.69-0.95,3.2-2.23,4.65-3.5c1.32-1.16,2.59-2.39,3.79-3.68c1.23-1.31,2.4-2.67,3.52-4.08
			c1.13-1.42,2.21-2.89,3.24-4.39c1.04-1.51,2.02-3.05,2.97-4.61c0.94-1.56,1.84-3.14,2.7-4.75c0.85-1.58,1.65-3.18,2.43-4.79
			c0.75-1.57,1.47-3.15,2.16-4.74c0.66-1.52,1.29-3.06,1.9-4.6c0.57-1.45,1.11-2.91,1.64-4.37c0.39-1.09,0.77-2.19,1.13-3.3
			c3.99-12.15,5.55-20.54,6.02-23.69L137.97-253.5z"/>
		
			<linearGradient id="SVGID_00000050657880210852600340000013828110262887329470_" gradientUnits="userSpaceOnUse" x1="500.2138" y1="-69.6313" x2="508.4915" y2="-8.6214" gradientTransform="matrix(0.9984 -0.0568 0.0568 0.9984 -379.264 -147.2535)">
			<stop  offset="0.1455" style="stop-color:#036EB8"/>
			<stop  offset="0.4103" style="stop-color:#E5352B"/>
			<stop  offset="0.6415" style="stop-color:#F8B62D"/>
			<stop  offset="0.8744" style="stop-color:#8FC31F"/>
		</linearGradient>
		<path style="fill:url(#SVGID_00000050657880210852600340000013828110262887329470_);" d="M107.04-188.16
			c1.43-1.2,2.99-2.64,3.56-3.25c0.21-0.22,0.41-0.44,0.61-0.65c2.76-2.99,4.99-5.8,7.56-9.75c3.64-5.61,6.54-12.04,8.72-17.57
			c5.99-15.25,8.2-29.48,8.7-33.14l-2,1.12c-0.33,2.19-0.49,4.01-0.9,6.19c-0.75,4-1.78,8.19-2.82,12.12
			c-0.92,3.47-2.07,6.73-3.25,10.12c-1.03,2.97-2.16,5.91-3.42,8.8c-1.09,2.5-2.26,4.97-3.54,7.38c-1.23,2.32-2.65,4.53-4.11,6.7
			c-0.82,1.23-1.67,2.45-2.56,3.65c-0.86,1.1-1.11,1.56-1.86,2.4l-0.01-0.02c0.53-0.8,1.05-1.61,1.57-2.42
			c1.41-2.15,2.82-4.29,4.08-6.53c2.46-4.38,4.48-9.01,6.28-13.7c1.62-4.24,3.06-8.54,4.35-12.89c0.8-2.68,1.55-5.39,2.2-8.11
			c1.07-4.52,2.05-11.09,2.29-12.81l-2.23,1.21c-0.03,0.2-0.05,0.4-0.08,0.6c-0.29,2.12-0.65,4.23-1.05,6.33
			c-0.67,3.51-1.45,6.99-2.34,10.45c-1.13,4.39-2.45,8.74-3.96,13.02c-1.7,4.79-3.65,9.49-5.91,14.04c-1.66,3.32-3.51,6.5-5.53,9.59
			c-1.05,1.6-2.14,3.18-3.27,4.74c-0.44,0.6-0.88,1.2-1.31,1.8c-0.19,0.26-0.82,1.26-0.82,1.26c0.04-0.02,0.08-0.03,0.12-0.05
			C106.29-187.6,106.52-187.72,107.04-188.16z"/>
		
			<linearGradient id="SVGID_00000114759892250458142410000005064167638869479090_" gradientUnits="userSpaceOnUse" x1="467.5179" y1="-65.1952" x2="475.7957" y2="-4.1852" gradientTransform="matrix(0.9984 -0.0568 0.0568 0.9984 -379.264 -147.2535)">
			<stop  offset="0.1455" style="stop-color:#036EB8"/>
			<stop  offset="0.4103" style="stop-color:#E5352B"/>
			<stop  offset="0.6415" style="stop-color:#F8B62D"/>
			<stop  offset="0.8744" style="stop-color:#8FC31F"/>
		</linearGradient>
		<path style="fill:url(#SVGID_00000114759892250458142410000005064167638869479090_);" d="M89.6-213.78
			c-2.83-1.7-4.32-1.22-4.32-1.22c9.88,1.91,13.4,23.59,13.76,26.02c-0.07-0.14-0.3-0.68-0.84-2.47c-0.4-1.31-2.01-7.19-2.35-8.15
			c-1.33-3.84-2.96-7.81-4.69-10.3c-4.23-6.09-8.89-3.98-8.89-3.98c8.01-0.89,12.49,13.14,14.22,19.69c1.73,6.55,3.51,7.4,3.51,7.4
			C98.14-203.3,92.68-211.92,89.6-213.78z"/>
		
			<linearGradient id="SVGID_00000074439055470301503710000002773267645066643100_" gradientUnits="userSpaceOnUse" x1="443.92" y1="-61.9935" x2="452.1978" y2="-0.9835" gradientTransform="matrix(0.9984 -0.0568 0.0568 0.9984 -379.264 -147.2535)">
			<stop  offset="0.1455" style="stop-color:#036EB8"/>
			<stop  offset="0.4103" style="stop-color:#E5352B"/>
			<stop  offset="0.6415" style="stop-color:#F8B62D"/>
			<stop  offset="0.8744" style="stop-color:#8FC31F"/>
		</linearGradient>
		<path style="fill:url(#SVGID_00000074439055470301503710000002773267645066643100_);" d="M59.88-186.38
			c0.66-1.96,1.36-3.9,2.1-5.83c0.57-1.5,1.17-2.98,1.8-4.46c0.48-1.12,0.97-2.23,1.49-3.33c1.27-2.71,2.8-5.31,4.41-7.83
			c1.43-2.22,2.97-4.39,4.71-6.37c1.38-1.56,2.9-3.06,4.68-4.16c0.25-0.16,0.51-0.3,0.78-0.44c4.45-2.3,9.37-0.25,9.37-0.25
			c-0.09-0.29-1.76-0.94-2.31-1.06c-0.79-0.17-1.6-0.31-2.4-0.36c-0.5-0.03-1-0.05-1.5-0.05c-0.21,0-0.42,0.01-0.63,0.02
			c-0.29,0.01-0.57,0.03-0.86,0.07c-0.33,0.04-0.66,0.09-0.99,0.15c-0.13,0.02-0.27,0.05-0.4,0.07c-0.18,0.04-0.35,0.07-0.52,0.11
			c-0.42,0.09-0.83,0.2-1.23,0.32c0,0,0,0,0,0c0,0,0,0,0,0c-0.19,0.06-0.37,0.11-0.55,0.17c-0.27,0.09-0.54,0.18-0.8,0.28
			c-0.6,0.23-1.19,0.49-1.77,0.78c-0.04,0.02-0.09,0.04-0.13,0.06c-0.28,0.14-0.56,0.29-0.83,0.45c-0.16,0.09-0.33,0.19-0.48,0.29
			c-0.19,0.11-0.38,0.24-0.57,0.36c-2.26,1.47-4.58,3.67-7.21,6.74c-7.1,8.29-17.68,37.57-18.64,42.41l2.98-0.97
			c1.15-5.36,4.68-14.89,8.09-23.9c3.5-9.23,8.99-18.89,16.61-23.92c0.11-0.07,0.22-0.15,0.34-0.22c0.31-0.2,0.63-0.38,0.95-0.56
			c0.13-0.07,0.25-0.14,0.38-0.21c0.16-0.09,0.32-0.18,0.48-0.26l0,0.01c-13.4,7.44-23.21,44.62-24.15,48.46l2.15-0.65
			c0.64-2.49,1.63-6.22,2.37-8.69C58.31-181.59,59.07-184,59.88-186.38z"/>
	</g>
	<g>
		<path class="st15" d="M123.18-153.23h6.84l-0.75,2.14h13.85v6.62h-7.54v2.88h8.66v6.74h-7.97c1.14,0.98,2.35,1.78,3.64,2.39
			c1.28,0.61,2.73,1.14,4.33,1.59v7.23c-2.67-0.61-4.95-1.42-6.82-2.42c-1.87-1-3.61-2.48-5.21-4.44c-1.64,1.96-3.38,3.44-5.21,4.44
			c-1.84,1-4.11,1.81-6.82,2.42v-7.23c1.6-0.45,3.05-0.98,4.33-1.59c1.28-0.61,2.49-1.41,3.64-2.39h-7.97v-6.74h8.56v-2.88h-8.61
			L123.18-153.23z M165.7-123.16v25.3h-42.89v-25.3H165.7z M158.74-113.48v-3h-28.98v3H158.74z M158.74-104.54v-3h-28.98v3H158.74z
			 M146.5-151.39h20.48v25.73H146.5V-151.39z M160.29-133.32v-10.41h-7.11v10.41H160.29z"/>
		<path class="st15" d="M202.75-116.17c-4.03-7.47-6.19-15.62-6.47-24.44h-2.73c-1.14,6.29-3.37,12.07-6.68,17.33h2.3v18.01h7.06
			v7.9h-13.96v-19.85c-3.24,3.63-7.01,6.64-11.28,9v-9.55c4.14-2.9,7.49-6.24,10.08-10.01c2.58-3.78,4.45-8.05,5.59-12.83h-15.13
			v-7.9h20.53v-4.9h7.06v4.9h20.53v7.9h-16.47c0.25,6.78,1.73,12.97,4.44,18.56l5.08-12.86h6.79l-5.35,13.54h-6.2
			c2.82,5.63,6.72,10.31,11.71,14.03v9.86C212.41-102.47,206.78-108.7,202.75-116.17z"/>
		<path class="st15" d="M224.73-127.75h5.03c0,10.53-0.64,20.07-1.93,28.6h-5.29C224-108.37,224.73-117.91,224.73-127.75z
			 M223.13-138.04h7.7v-5.33c-2.28,0.12-4.62,0.18-7.01,0.18v-7.47c5.7,0,12.01-0.59,18.93-1.78v7.53
			c-2.42,0.45-4.12,0.74-5.08,0.86v6h6.1v7.47h-6.1v4.65l5.99,3.37v8.76l-5.99-3.37v20.4h-6.47v-33.81h-8.07V-138.04z
			 M244.84-114.89l14.81-3.37v-34.18h6.95v32.65l5.29-1.23v8.21l-5.29,1.23v14.82h-6.95v-13.29l-14.81,3.37V-114.89z M245.32-135.04
			l10.8,4.29v7.66l-10.8-4.29V-135.04z M247.46-148.94l10.8,4.29v7.66l-10.8-4.29V-148.94z"/>
		<path class="st15" d="M273.98-123.71l5.56-1.53v-11.33h-5.03v-7.72h5.03v-8.51h6.95v8.51h5.08v7.72h-5.08v9.49l5.61-1.53v8.51
			l-5.61,1.53v21.19h-11.07v-7.41h4.12v-11.94l-5.56,1.53V-123.71z M302.21-111.21c-3.92-5.35-6.6-12.23-8.02-20.64h10.43v-8.21
			h-10.8v-7.47h10.8v-4.96h6.84v4.96h11.12v7.47h-11.12v8.21h10.48c-0.75,8-3.98,15.13-9.68,21.38c3.32,2.82,6.58,4.72,9.79,5.7
			v8.15c-6.2-2.82-11.14-5.86-14.81-9.13c-4.46,3.68-9.61,6.57-15.45,8.7v-8.15C295.81-107.09,299.29-109.09,302.21-111.21z
			 M307.35-115.56c2.78-2.9,4.85-5.96,6.2-9.19h-11.39C303.3-121.6,305.03-118.54,307.35-115.56z"/>
	</g>
	<g>
		<path class="st15" d="M121.43-82.66l4.17-6.46h-3.79v-0.85h5.04v0.6l-4.17,6.46h4.2v0.85h-5.45V-82.66z"/>
		<path class="st15" d="M134.69-89.97h1.01v3.31h3.68v-3.31h1.01v7.91h-1.01v-3.72h-3.68v3.72h-1.01V-89.97z"/>
		<path class="st15" d="M148.82-89.97h1.01v7.91h-1.01V-89.97z"/>
		<path class="st15" d="M168.21-85.13l-2.38-4.84h1.07l1.02,2.23c0.25,0.58,0.49,1.13,0.77,1.72h0.05c0.27-0.59,0.55-1.14,0.79-1.72
			l1.02-2.23h1.04l-2.38,4.84v3.07h-1.01V-85.13z"/>
		<path class="st15" d="M178.8-89.97h1.01v7.91h-1.01V-89.97z"/>
		<path class="st15" d="M198.56-89.12h-2.39v-0.85h5.79v0.85h-2.39v7.06h-1.01V-89.12z"/>
		<path class="st15" d="M209.64-89.97h4.56v0.85h-3.55v2.48h3v0.85h-3v2.88h3.67v0.85h-4.68V-89.97z"/>
		<path class="st15" d="M221.8-86.01c0-2.55,1.5-4.11,3.51-4.11c0.96,0,1.71,0.47,2.18,0.98l-0.55,0.66
			c-0.42-0.44-0.94-0.75-1.61-0.75c-1.49,0-2.49,1.22-2.49,3.19c0,1.99,0.95,3.23,2.45,3.23c0.76,0,1.33-0.33,1.83-0.89l0.55,0.63
			c-0.62,0.73-1.4,1.14-2.43,1.14C223.28-81.92,221.8-83.44,221.8-86.01z"/>
		<path class="st15" d="M235.41-89.97h1.01v3.31h3.68v-3.31h1.01v7.91h-1.01v-3.72h-3.68v3.72h-1.01V-89.97z"/>
		<path class="st15" d="M249.53-89.97h1.04l2.86,4.97l0.85,1.64h0.05c-0.05-0.8-0.13-1.69-0.13-2.52v-4.09h0.96v7.91h-1.04
			l-2.86-4.98l-0.85-1.63h-0.05c0.05,0.8,0.13,1.64,0.13,2.47v4.14h-0.96V-89.97z"/>
		<path class="st15" d="M263.13-86.05c0-2.53,1.39-4.07,3.38-4.07c1.99,0,3.38,1.54,3.38,4.07c0,2.53-1.39,4.13-3.38,4.13
			C264.53-81.92,263.13-83.52,263.13-86.05z M268.86-86.05c0-1.97-0.93-3.19-2.34-3.19c-1.41,0-2.34,1.22-2.34,3.19
			s0.93,3.24,2.34,3.24C267.93-82.81,268.86-84.08,268.86-86.05z"/>
		<path class="st15" d="M277.87-89.97h1.01v7.06h3.45v0.85h-4.46V-89.97z"/>
		<path class="st15" d="M289.22-86.05c0-2.53,1.39-4.07,3.38-4.07c1.99,0,3.38,1.54,3.38,4.07c0,2.53-1.39,4.13-3.38,4.13
			C290.61-81.92,289.22-83.52,289.22-86.05z M294.94-86.05c0-1.97-0.93-3.19-2.34-3.19c-1.41,0-2.34,1.22-2.34,3.19
			s0.93,3.24,2.34,3.24C294.01-82.81,294.94-84.08,294.94-86.05z"/>
		<path class="st15" d="M303.49-86.01c0-2.55,1.53-4.11,3.63-4.11c1.1,0,1.82,0.5,2.28,0.98l-0.55,0.66
			c-0.4-0.41-0.91-0.75-1.7-0.75c-1.59,0-2.62,1.22-2.62,3.19c0,1.99,0.94,3.23,2.63,3.23c0.57,0,1.11-0.17,1.43-0.46v-2.06h-1.68
			v-0.83h2.59v3.33c-0.51,0.53-1.37,0.92-2.44,0.92C304.97-81.92,303.49-83.44,303.49-86.01z"/>
		<path class="st15" d="M318.93-85.13l-2.38-4.84h1.08l1.02,2.23c0.25,0.58,0.49,1.13,0.77,1.72h0.05c0.27-0.59,0.55-1.14,0.79-1.72
			l1.02-2.23h1.04l-2.38,4.84v3.07h-1.01V-85.13z"/>
	</g>
</g>
<g>
	<path class="st2" d="M638.01-235.84"/>
	<g>
		<path class="st1" d="M627.22-233.05c-0.17,0-0.33-0.12-0.38-0.29c-0.05-0.21,0.07-0.42,0.28-0.48l9.68-2.26
			c0.21-0.05,0.42,0.07,0.48,0.28c0.05,0.21-0.07,0.42-0.28,0.48l-9.68,2.26C627.28-233.06,627.25-233.05,627.22-233.05z"/>
	</g>
	
		<linearGradient id="SVGID_00000145051146813723064780000011657943840675497370_" gradientUnits="userSpaceOnUse" x1="553.3077" y1="-201.0695" x2="599.9994" y2="-167.2794">
		<stop  offset="0" style="stop-color:#036EB8"/>
		<stop  offset="0.021" style="stop-color:#466DAB"/>
		<stop  offset="0.0741" style="stop-color:#82678B"/>
		<stop  offset="0.1285" style="stop-color:#A75E6E"/>
		<stop  offset="0.1832" style="stop-color:#C05356"/>
		<stop  offset="0.2383" style="stop-color:#D14843"/>
		<stop  offset="0.2939" style="stop-color:#DC3E36"/>
		<stop  offset="0.3505" style="stop-color:#E3382E"/>
		<stop  offset="0.4095" style="stop-color:#E5352B"/>
		<stop  offset="0.6415" style="stop-color:#F8B62D"/>
		<stop  offset="0.7632" style="stop-color:#8FC31F"/>
	</linearGradient>
	<polygon style="fill:url(#SVGID_00000145051146813723064780000011657943840675497370_);" points="589.57,-184.73 589.44,-185.78 
		588,-185.91 586.76,-186.7 560.05,-209.15 558.21,-211.04 583.49,-167.45 585.52,-164.24 586.1,-164.06 586.5,-164.96 	"/>
	<path class="st1" d="M660.36-214.7l-15.47,14.64l-58.79,36l3.02-22.1c0,0,1.37,0.25,3.14-0.2l2.42-1.14l64.61-27.57l1.98-0.83
		c0,0-0.13,0.3-0.54,0.79C660.62-214.96,660.36-214.7,660.36-214.7z"/>
	<path class="st1" d="M589.15-186.21c-1.36-0.21-2.23-0.77-2.28-0.8c-9.08-7.23-26.62-21.67-28.04-24.61
		c-0.47-0.97-0.54-1.82-0.21-2.53c0.61-1.31,2.42-1.76,2.44-1.77l22.58-6.02c0.21-0.06,0.33-0.27,0.28-0.48
		c-0.06-0.21-0.27-0.33-0.48-0.28l-22.58,6.02c-0.09,0.02-2.18,0.55-2.96,2.19c-0.44,0.93-0.37,2.01,0.21,3.21
		c1.85,3.83,27.18,24.02,28.28,24.9c0.07,0.05,1.08,0.71,2.65,0.95L589.15-186.21L589.15-186.21z"/>
	<path class="st1" d="M593.71-186.19c3.89-1.9,65.9-28.17,66.52-28.44c0.04-0.02,0.07-0.04,0.1-0.06c0.06-0.05,1.4-1.22,1.38-2.84
		c-0.01-0.99-0.52-1.91-1.52-2.73c-2.97-2.45-11.81-10.51-11.9-10.59c-0.16-0.15-0.41-0.13-0.55,0.03
		c-0.15,0.16-0.13,0.41,0.03,0.56c0.09,0.08,8.94,8.15,11.93,10.62c0.81,0.67,1.22,1.38,1.23,2.13c0.01,1.11-0.86,2.01-1.07,2.21
		c-2.3,0.97-62.64,26.54-66.5,28.43c-1.63,0.79-3.09,0.85-4.21,0.68l0,0.01l-0.09,0.77c0.35,0.05,0.73,0.09,1.13,0.09
		C591.23-185.35,592.42-185.56,593.71-186.19z"/>
	<g>
		
			<linearGradient id="SVGID_00000096019557867196889850000012567111202222248087_" gradientUnits="userSpaceOnUse" x1="1004.3774" y1="-56.9949" x2="1011.4474" y2="-4.8862" gradientTransform="matrix(0.9984 -0.0568 0.0568 0.9984 -379.264 -147.2535)">
			<stop  offset="0" style="stop-color:#036EB8"/>
			<stop  offset="0.021" style="stop-color:#466DAB"/>
			<stop  offset="0.0741" style="stop-color:#82678B"/>
			<stop  offset="0.1285" style="stop-color:#A75E6E"/>
			<stop  offset="0.1832" style="stop-color:#C05356"/>
			<stop  offset="0.2383" style="stop-color:#D14843"/>
			<stop  offset="0.2939" style="stop-color:#DC3E36"/>
			<stop  offset="0.3505" style="stop-color:#E3382E"/>
			<stop  offset="0.4095" style="stop-color:#E5352B"/>
			<stop  offset="0.6415" style="stop-color:#F8B62D"/>
			<stop  offset="0.7632" style="stop-color:#8FC31F"/>
		</linearGradient>
		<path style="fill:url(#SVGID_00000096019557867196889850000012567111202222248087_);" d="M657.34-271.91
			c-0.94,7.66-6.97,41.45-27.29,57.18c-0.44,0.34-0.78,0.55-1.04,0.67c-0.32,0.14-0.68-0.02-0.79-0.33
			c-0.02-0.05-0.04-0.13-0.07-0.37c-0.83-7.22-2.32-14.88-6.24-21.15c-1.01-1.62-2.21-3.14-3.65-4.42c-1.25-1.12-2.59-1.8-4.25-2.06
			c-2.26-0.35-4.55,0.2-6.46,1.54c-5.49,3.87-9.63,11.38-12.54,18.62c-2.85,7.09-5.32,17.22-6.07,20.57l2.61-0.75
			c0.07-0.32,0.12-0.56,0.14-0.65c0.85-3.93,6.59-28.39,17.21-35.86c1.39-0.98,3.11-1.39,4.74-1.14c4.94,0.76,7.86,7.92,9.27,11.98
			c0.65,1.86,1.17,3.77,1.61,5.69c0.44,1.94,0.77,3.91,1.05,5.88c0.05,0.37,0.1,0.74,0.15,1.11c0.06,0.48,0.08,0.99,0.34,1.41
			c0.26,0.4,0.69,0.66,1.14,0.81c0.87,0.29,1.84,0.1,2.62-0.34c1.44-0.81,2.73-1.9,3.97-2.99c1.13-0.99,2.21-2.04,3.24-3.14
			c1.05-1.12,2.05-2.28,3-3.48c0.97-1.22,1.89-2.47,2.77-3.75c0.89-1.29,1.73-2.6,2.54-3.94c0.8-1.33,1.57-2.68,2.31-4.05
			c0.72-1.35,1.41-2.71,2.08-4.09c0.64-1.34,1.26-2.69,1.85-4.05c0.56-1.3,1.1-2.61,1.62-3.93c0.49-1.24,0.95-2.48,1.4-3.74
			c0.33-0.93,0.65-1.87,0.96-2.81c3.41-10.38,4.74-17.54,5.15-20.24L657.34-271.91z"/>
		
			<linearGradient id="SVGID_00000139282290789361643480000002656856679232543111_" gradientUnits="userSpaceOnUse" x1="1023.0269" y1="-59.5253" x2="1030.0969" y2="-7.4165" gradientTransform="matrix(0.9984 -0.0568 0.0568 0.9984 -379.264 -147.2535)">
			<stop  offset="0.1455" style="stop-color:#036EB8"/>
			<stop  offset="0.4103" style="stop-color:#E5352B"/>
			<stop  offset="0.6415" style="stop-color:#F8B62D"/>
			<stop  offset="0.8744" style="stop-color:#8FC31F"/>
		</linearGradient>
		<path style="fill:url(#SVGID_00000139282290789361643480000002656856679232543111_);" d="M630.91-216.1
			c1.22-1.03,2.55-2.26,3.04-2.78c0.18-0.19,0.35-0.37,0.52-0.56c2.36-2.55,4.27-4.95,6.45-8.33c3.11-4.79,5.59-10.28,7.44-15.01
			c5.11-13.02,7.01-25.18,7.43-28.31l-1.71,0.95c-0.28,1.87-0.42,3.43-0.77,5.28c-0.64,3.42-1.52,6.99-2.41,10.36
			c-0.78,2.97-1.77,5.75-2.77,8.65c-0.88,2.54-1.85,5.05-2.92,7.52c-0.93,2.14-1.93,4.24-3.03,6.3c-1.05,1.98-2.26,3.87-3.51,5.72
			c-0.7,1.05-1.43,2.1-2.18,3.12c-0.74,0.94-0.95,1.33-1.59,2.05l-0.01-0.02c0.45-0.69,0.89-1.38,1.34-2.06
			c1.2-1.83,2.41-3.66,3.48-5.58c2.1-3.74,3.82-7.69,5.36-11.7c1.39-3.62,2.61-7.3,3.72-11.01c0.68-2.29,1.32-4.6,1.88-6.93
			c0.92-3.86,1.75-9.47,1.96-10.94l-1.9,1.03c-0.02,0.17-0.04,0.34-0.07,0.51c-0.25,1.81-0.56,3.61-0.9,5.4
			c-0.57,3-1.24,5.97-2,8.92c-0.97,3.75-2.09,7.47-3.38,11.12c-1.45,4.09-3.11,8.11-5.05,11.99c-1.42,2.84-3,5.56-4.72,8.19
			c-0.89,1.37-1.83,2.72-2.79,4.05c-0.37,0.51-0.75,1.03-1.12,1.54c-0.16,0.22-0.7,1.07-0.7,1.07c0.03-0.01,0.07-0.03,0.1-0.04
			C630.27-215.63,630.47-215.73,630.91-216.1z"/>
		
			<linearGradient id="SVGID_00000123410890962058239480000013017137563226509722_" gradientUnits="userSpaceOnUse" x1="995.1013" y1="-55.7364" x2="1002.1714" y2="-3.6276" gradientTransform="matrix(0.9984 -0.0568 0.0568 0.9984 -379.264 -147.2535)">
			<stop  offset="0.1455" style="stop-color:#036EB8"/>
			<stop  offset="0.4103" style="stop-color:#E5352B"/>
			<stop  offset="0.6415" style="stop-color:#F8B62D"/>
			<stop  offset="0.8744" style="stop-color:#8FC31F"/>
		</linearGradient>
		<path style="fill:url(#SVGID_00000123410890962058239480000013017137563226509722_);" d="M616.02-237.99
			c-2.41-1.46-3.69-1.04-3.69-1.04c8.44,1.63,11.44,20.15,11.75,22.23c-0.06-0.12-0.25-0.58-0.72-2.11
			c-0.34-1.12-1.72-6.14-2.01-6.96c-1.14-3.28-2.53-6.67-4.01-8.79c-3.62-5.2-7.59-3.4-7.59-3.4c6.84-0.76,10.67,11.22,12.14,16.82
			c1.47,5.6,3,6.32,3,6.32C623.31-229.04,618.66-236.4,616.02-237.99z"/>
		
			<linearGradient id="SVGID_00000033370440069371575430000003866333917712057730_" gradientUnits="userSpaceOnUse" x1="974.9464" y1="-53.0018" x2="982.0164" y2="-0.8931" gradientTransform="matrix(0.9984 -0.0568 0.0568 0.9984 -379.264 -147.2535)">
			<stop  offset="0.1455" style="stop-color:#036EB8"/>
			<stop  offset="0.4103" style="stop-color:#E5352B"/>
			<stop  offset="0.6415" style="stop-color:#F8B62D"/>
			<stop  offset="0.8744" style="stop-color:#8FC31F"/>
		</linearGradient>
		<path style="fill:url(#SVGID_00000033370440069371575430000003866333917712057730_);" d="M590.64-214.59
			c0.57-1.67,1.16-3.33,1.79-4.98c0.49-1.28,1-2.55,1.54-3.81c0.41-0.96,0.83-1.91,1.27-2.85c1.09-2.31,2.39-4.53,3.77-6.68
			c1.22-1.9,2.53-3.75,4.03-5.44c1.18-1.34,2.48-2.62,4-3.56c0.22-0.13,0.44-0.26,0.66-0.38c3.8-1.96,8-0.21,8-0.21
			c-0.08-0.25-1.5-0.8-1.97-0.9c-0.67-0.15-1.36-0.26-2.05-0.31c-0.43-0.03-0.86-0.04-1.28-0.04c-0.18,0-0.36,0.01-0.54,0.01
			c-0.24,0.01-0.49,0.03-0.74,0.06c-0.28,0.03-0.56,0.07-0.85,0.12c-0.11,0.02-0.23,0.04-0.34,0.06c-0.15,0.03-0.3,0.06-0.45,0.1
			c-0.36,0.08-0.71,0.17-1.05,0.27c0,0,0,0,0,0c0,0,0,0,0,0c-0.16,0.05-0.31,0.1-0.47,0.15c-0.23,0.08-0.46,0.15-0.69,0.24
			c-0.51,0.2-1.02,0.42-1.51,0.66c-0.04,0.02-0.07,0.04-0.11,0.05c-0.24,0.12-0.48,0.25-0.71,0.38c-0.14,0.08-0.28,0.16-0.41,0.24
			c-0.16,0.1-0.32,0.2-0.48,0.31c-1.93,1.26-3.91,3.14-6.15,5.76c-6.07,7.08-15.1,32.09-15.92,36.22l2.55-0.83
			c0.98-4.58,3.99-12.72,6.91-20.42c2.99-7.89,7.68-16.13,14.18-20.43c0.1-0.06,0.19-0.13,0.29-0.19c0.27-0.17,0.54-0.33,0.81-0.48
			c0.11-0.06,0.21-0.12,0.32-0.18c0.14-0.07,0.27-0.15,0.41-0.22l0,0.01c-11.45,6.35-19.82,38.11-20.63,41.39l1.83-0.56
			c0.55-2.13,1.4-5.31,2.02-7.42C589.3-210.49,589.95-212.55,590.64-214.59z"/>
	</g>
	<g>
		<path class="st15" d="M511.5-145.72h6.84l-0.75,2.14h13.85v6.62h-7.54v2.88h8.66v6.74h-7.97c1.14,0.98,2.35,1.78,3.64,2.39
			c1.28,0.61,2.73,1.14,4.33,1.59v7.23c-2.67-0.61-4.95-1.42-6.82-2.42c-1.87-1-3.61-2.48-5.21-4.44c-1.64,1.96-3.38,3.44-5.21,4.44
			c-1.84,1-4.11,1.81-6.82,2.42v-7.23c1.6-0.45,3.05-0.98,4.33-1.59c1.28-0.61,2.49-1.41,3.64-2.39h-7.97v-6.74h8.56v-2.88h-8.61
			L511.5-145.72z M554.01-115.64v25.3h-42.89v-25.3H554.01z M547.06-105.96v-3h-28.98v3H547.06z M547.06-97.02v-3h-28.98v3H547.06z
			 M534.81-143.88h20.48v25.73h-20.48V-143.88z M548.61-125.81v-10.41h-7.11v10.41H548.61z"/>
		<path class="st15" d="M591.06-108.66c-4.03-7.47-6.19-15.62-6.47-24.44h-2.73c-1.14,6.29-3.37,12.07-6.68,17.33h2.3v18.01h7.06
			v7.9h-13.96v-19.85c-3.24,3.63-7.01,6.64-11.28,9v-9.55c4.14-2.9,7.49-6.24,10.08-10.01c2.58-3.78,4.45-8.05,5.59-12.83h-15.13
			v-7.9h20.53v-4.9h7.06v4.9h20.53v7.9h-16.47c0.25,6.78,1.73,12.97,4.44,18.56l5.08-12.86h6.79l-5.35,13.54h-6.2
			c2.82,5.63,6.72,10.31,11.71,14.03v9.86C600.72-94.96,595.09-101.19,591.06-108.66z"/>
		<path class="st15" d="M613.04-120.24h5.03c0,10.53-0.64,20.07-1.92,28.6h-5.29C612.31-100.86,613.04-110.39,613.04-120.24z
			 M611.44-130.53h7.7v-5.33c-2.28,0.12-4.62,0.18-7.01,0.18v-7.47c5.7,0,12.01-0.59,18.93-1.78v7.53
			c-2.42,0.45-4.12,0.74-5.08,0.86v6h6.1v7.47h-6.1v4.65l5.99,3.37v8.76l-5.99-3.37v20.4h-6.47v-33.81h-8.07V-130.53z
			 M633.15-107.37l14.81-3.37v-34.18h6.95v32.65l5.29-1.23v8.21l-5.29,1.23v14.82h-6.95v-13.29l-14.81,3.37V-107.37z M633.63-127.52
			l10.8,4.29v7.66l-10.8-4.29V-127.52z M635.77-141.43l10.8,4.29v7.66l-10.8-4.29V-141.43z"/>
		<path class="st15" d="M662.29-116.19l5.56-1.53v-11.33h-5.03v-7.72h5.03v-8.51h6.95v8.51h5.08v7.72h-5.08v9.49l5.61-1.53v8.51
			l-5.61,1.53v21.19h-11.07v-7.41h4.12v-11.94l-5.56,1.53V-116.19z M690.52-103.7c-3.92-5.35-6.6-12.23-8.02-20.64h10.43v-8.21
			h-10.8v-7.47h10.8v-4.96h6.84v4.96h11.12v7.47h-11.12v8.21h10.48c-0.75,8-3.98,15.13-9.68,21.38c3.32,2.82,6.58,4.72,9.79,5.7
			v8.15c-6.2-2.82-11.14-5.86-14.81-9.13c-4.46,3.68-9.61,6.57-15.45,8.7v-8.15C684.12-99.57,687.6-101.57,690.52-103.7z
			 M695.66-108.05c2.78-2.9,4.85-5.96,6.2-9.19h-11.39C691.61-114.09,693.34-111.03,695.66-108.05z"/>
	</g>
	<g>
		<path class="st21" d="M509.74-75.15l4.17-6.46h-3.79v-0.85h5.04v0.6l-4.17,6.46h4.2v0.85h-5.45V-75.15z"/>
		<path class="st21" d="M523.01-82.46h1.01v3.31h3.68v-3.31h1.01v7.91h-1.01v-3.72h-3.68v3.72h-1.01V-82.46z"/>
		<path class="st21" d="M537.13-82.46h1.01v7.91h-1.01V-82.46z"/>
		<path class="st21" d="M556.52-77.62l-2.38-4.84h1.07l1.02,2.23c0.25,0.58,0.49,1.13,0.77,1.72h0.05c0.27-0.59,0.55-1.14,0.79-1.72
			l1.02-2.23h1.04l-2.38,4.84v3.07h-1.01V-77.62z"/>
		<path class="st21" d="M567.11-82.46h1.01v7.91h-1.01V-82.46z"/>
		<path class="st21" d="M586.87-81.61h-2.39v-0.85h5.79v0.85h-2.39v7.06h-1.01V-81.61z"/>
		<path class="st21" d="M597.96-82.46h4.56v0.85h-3.55v2.48h3v0.85h-3v2.88h3.67v0.85h-4.68V-82.46z"/>
		<path class="st21" d="M610.11-78.5c0-2.55,1.5-4.11,3.51-4.11c0.96,0,1.71,0.47,2.18,0.98l-0.55,0.66
			c-0.42-0.44-0.94-0.75-1.61-0.75c-1.49,0-2.49,1.22-2.49,3.19c0,1.99,0.95,3.23,2.45,3.23c0.76,0,1.33-0.33,1.83-0.89l0.55,0.63
			c-0.62,0.73-1.4,1.14-2.43,1.14C611.59-74.41,610.11-75.93,610.11-78.5z"/>
		<path class="st21" d="M623.72-82.46h1.01v3.31h3.68v-3.31h1.01v7.91h-1.01v-3.72h-3.68v3.72h-1.01V-82.46z"/>
		<path class="st21" d="M637.84-82.46h1.04l2.86,4.97l0.85,1.64h0.05c-0.05-0.8-0.13-1.69-0.13-2.52v-4.09h0.96v7.91h-1.04
			l-2.86-4.98l-0.85-1.63h-0.05c0.05,0.8,0.13,1.64,0.13,2.47v4.14h-0.96V-82.46z"/>
		<path class="st21" d="M651.45-78.53c0-2.53,1.39-4.07,3.38-4.07c1.99,0,3.38,1.54,3.38,4.07c0,2.53-1.39,4.13-3.38,4.13
			C652.84-74.41,651.45-76,651.45-78.53z M657.17-78.53c0-1.97-0.93-3.19-2.34-3.19c-1.41,0-2.34,1.22-2.34,3.19
			s0.93,3.24,2.34,3.24C656.24-75.29,657.17-76.56,657.17-78.53z"/>
		<path class="st21" d="M666.18-82.46h1.01v7.06h3.45v0.85h-4.46V-82.46z"/>
		<path class="st21" d="M677.53-78.53c0-2.53,1.39-4.07,3.38-4.07c1.99,0,3.38,1.54,3.38,4.07c0,2.53-1.39,4.13-3.38,4.13
			C678.92-74.41,677.53-76,677.53-78.53z M683.25-78.53c0-1.97-0.93-3.19-2.34-3.19c-1.41,0-2.34,1.22-2.34,3.19
			s0.93,3.24,2.34,3.24C682.32-75.29,683.25-76.56,683.25-78.53z"/>
		<path class="st21" d="M691.8-78.5c0-2.55,1.53-4.11,3.63-4.11c1.1,0,1.82,0.5,2.28,0.98l-0.55,0.66c-0.4-0.41-0.91-0.75-1.7-0.75
			c-1.59,0-2.62,1.22-2.62,3.19c0,1.99,0.94,3.23,2.63,3.23c0.57,0,1.11-0.17,1.43-0.46v-2.06h-1.68v-0.83h2.59v3.33
			c-0.51,0.53-1.37,0.92-2.44,0.92C693.29-74.41,691.8-75.93,691.8-78.5z"/>
		<path class="st21" d="M707.25-77.62l-2.38-4.84h1.08l1.02,2.23c0.25,0.58,0.49,1.13,0.77,1.72h0.05c0.27-0.59,0.55-1.14,0.79-1.72
			l1.02-2.23h1.04l-2.38,4.84v3.07h-1.01V-77.62z"/>
	</g>
</g>
<g>
	<path class="st2" d="M628.64-482.06"/>
	<g>
		<path class="st1" d="M617.84-479.28c-0.17,0-0.33-0.12-0.38-0.29c-0.05-0.21,0.07-0.42,0.28-0.48l9.68-2.26
			c0.21-0.05,0.42,0.07,0.48,0.28c0.05,0.21-0.07,0.42-0.28,0.48l-9.68,2.26C617.9-479.28,617.87-479.28,617.84-479.28z"/>
	</g>
	
		<linearGradient id="SVGID_00000088120621310309161040000004042301413407939220_" gradientUnits="userSpaceOnUse" x1="543.9304" y1="-447.2953" x2="590.6221" y2="-413.5052">
		<stop  offset="0" style="stop-color:#036EB8"/>
		<stop  offset="0.021" style="stop-color:#466DAB"/>
		<stop  offset="0.0741" style="stop-color:#82678B"/>
		<stop  offset="0.1285" style="stop-color:#A75E6E"/>
		<stop  offset="0.1832" style="stop-color:#C05356"/>
		<stop  offset="0.2383" style="stop-color:#D14843"/>
		<stop  offset="0.2939" style="stop-color:#DC3E36"/>
		<stop  offset="0.3505" style="stop-color:#E3382E"/>
		<stop  offset="0.4095" style="stop-color:#E5352B"/>
		<stop  offset="0.6415" style="stop-color:#F8B62D"/>
		<stop  offset="0.7632" style="stop-color:#8FC31F"/>
	</linearGradient>
	<polygon style="fill:url(#SVGID_00000088120621310309161040000004042301413407939220_);" points="580.2,-430.96 580.07,-432.01 
		578.63,-432.14 577.38,-432.92 550.67,-455.38 548.84,-457.26 574.11,-413.68 576.14,-410.47 576.73,-410.28 577.12,-411.19 	"/>
	<path class="st1" d="M650.98-460.93l-15.47,14.64l-58.79,36l3.02-22.1c0,0,1.37,0.25,3.14-0.2l2.42-1.14l64.61-27.57l1.98-0.83
		c0,0-0.13,0.3-0.54,0.79C651.24-461.18,650.98-460.93,650.98-460.93z"/>
	<path class="st1" d="M579.77-432.44c-1.36-0.21-2.23-0.77-2.28-0.8c-9.08-7.23-26.62-21.67-28.04-24.61
		c-0.47-0.97-0.54-1.82-0.21-2.53c0.61-1.31,2.42-1.76,2.44-1.77l22.58-6.02c0.21-0.06,0.33-0.27,0.28-0.48
		c-0.06-0.21-0.27-0.33-0.48-0.28l-22.58,6.02c-0.09,0.02-2.18,0.55-2.96,2.19c-0.44,0.93-0.37,2.01,0.21,3.21
		c1.85,3.83,27.18,24.02,28.28,24.9c0.07,0.05,1.08,0.71,2.65,0.95L579.77-432.44L579.77-432.44z"/>
	<path class="st1" d="M584.33-432.41c3.89-1.9,65.9-28.17,66.52-28.44c0.04-0.02,0.07-0.04,0.1-0.06c0.06-0.05,1.4-1.22,1.38-2.84
		c-0.01-0.99-0.52-1.91-1.52-2.73c-2.97-2.45-11.81-10.51-11.9-10.59c-0.16-0.15-0.41-0.13-0.55,0.03
		c-0.15,0.16-0.13,0.41,0.03,0.56c0.09,0.08,8.94,8.15,11.93,10.62c0.81,0.67,1.22,1.38,1.23,2.13c0.01,1.11-0.86,2.01-1.07,2.21
		c-2.3,0.97-62.64,26.54-66.5,28.43c-1.63,0.79-3.09,0.85-4.21,0.68l0,0.01l-0.09,0.77c0.35,0.05,0.73,0.09,1.13,0.09
		C581.85-431.57,583.05-431.79,584.33-432.41z"/>
	<g>
		
			<linearGradient id="SVGID_00000183231247508511139090000014415865204703591087_" gradientUnits="userSpaceOnUse" x1="1009.0086" y1="-303.3558" x2="1016.0787" y2="-251.247" gradientTransform="matrix(0.9984 -0.0568 0.0568 0.9984 -379.264 -147.2535)">
			<stop  offset="0" style="stop-color:#036EB8"/>
			<stop  offset="0.021" style="stop-color:#466DAB"/>
			<stop  offset="0.0741" style="stop-color:#82678B"/>
			<stop  offset="0.1285" style="stop-color:#A75E6E"/>
			<stop  offset="0.1832" style="stop-color:#C05356"/>
			<stop  offset="0.2383" style="stop-color:#D14843"/>
			<stop  offset="0.2939" style="stop-color:#DC3E36"/>
			<stop  offset="0.3505" style="stop-color:#E3382E"/>
			<stop  offset="0.4095" style="stop-color:#E5352B"/>
			<stop  offset="0.6415" style="stop-color:#F8B62D"/>
			<stop  offset="0.7632" style="stop-color:#8FC31F"/>
		</linearGradient>
		<path style="fill:url(#SVGID_00000183231247508511139090000014415865204703591087_);" d="M647.96-518.14
			c-0.94,7.66-6.97,41.45-27.29,57.18c-0.44,0.34-0.78,0.55-1.04,0.67c-0.32,0.14-0.68-0.02-0.79-0.33
			c-0.02-0.05-0.04-0.13-0.07-0.37c-0.83-7.22-2.32-14.88-6.24-21.15c-1.01-1.62-2.21-3.14-3.65-4.42c-1.25-1.12-2.59-1.8-4.25-2.06
			c-2.26-0.35-4.55,0.2-6.46,1.54c-5.49,3.87-9.63,11.38-12.54,18.62c-2.85,7.09-5.32,17.22-6.07,20.57l2.61-0.75
			c0.07-0.32,0.12-0.56,0.14-0.65c0.85-3.93,6.59-28.39,17.21-35.86c1.39-0.98,3.11-1.39,4.74-1.14c4.94,0.76,7.86,7.92,9.27,11.98
			c0.65,1.86,1.17,3.77,1.61,5.69c0.44,1.94,0.77,3.91,1.05,5.88c0.05,0.37,0.1,0.74,0.15,1.11c0.06,0.48,0.08,0.99,0.34,1.41
			c0.26,0.4,0.69,0.66,1.14,0.81c0.87,0.29,1.84,0.1,2.62-0.34c1.44-0.81,2.73-1.9,3.97-2.99c1.13-0.99,2.21-2.04,3.24-3.14
			c1.05-1.12,2.05-2.28,3-3.48c0.97-1.22,1.89-2.47,2.77-3.75c0.89-1.29,1.73-2.6,2.54-3.94c0.8-1.33,1.57-2.68,2.31-4.05
			c0.72-1.35,1.41-2.71,2.08-4.09c0.64-1.34,1.26-2.69,1.85-4.05c0.56-1.3,1.1-2.61,1.62-3.93c0.49-1.24,0.95-2.48,1.4-3.74
			c0.33-0.93,0.65-1.87,0.96-2.81c3.41-10.38,4.74-17.54,5.15-20.24L647.96-518.14z"/>
		
			<linearGradient id="SVGID_00000041979969642948512820000012387198843120878516_" gradientUnits="userSpaceOnUse" x1="1027.6582" y1="-305.8861" x2="1034.7281" y2="-253.7774" gradientTransform="matrix(0.9984 -0.0568 0.0568 0.9984 -379.264 -147.2535)">
			<stop  offset="0.1455" style="stop-color:#036EB8"/>
			<stop  offset="0.4103" style="stop-color:#E5352B"/>
			<stop  offset="0.6415" style="stop-color:#F8B62D"/>
			<stop  offset="0.8744" style="stop-color:#8FC31F"/>
		</linearGradient>
		<path style="fill:url(#SVGID_00000041979969642948512820000012387198843120878516_);" d="M621.54-462.33
			c1.22-1.03,2.55-2.26,3.04-2.78c0.18-0.19,0.35-0.37,0.52-0.56c2.36-2.55,4.27-4.95,6.46-8.33c3.11-4.79,5.59-10.28,7.44-15.01
			c5.11-13.02,7.01-25.18,7.43-28.31l-1.71,0.95c-0.28,1.87-0.42,3.43-0.77,5.28c-0.64,3.42-1.52,6.99-2.41,10.36
			c-0.78,2.97-1.77,5.75-2.77,8.65c-0.88,2.54-1.85,5.05-2.92,7.52c-0.93,2.14-1.93,4.24-3.03,6.3c-1.05,1.98-2.26,3.87-3.51,5.72
			c-0.7,1.05-1.43,2.1-2.18,3.12c-0.74,0.94-0.95,1.33-1.59,2.05l-0.01-0.02c0.45-0.69,0.89-1.38,1.34-2.06
			c1.2-1.83,2.41-3.66,3.48-5.58c2.1-3.74,3.82-7.69,5.36-11.7c1.39-3.62,2.61-7.3,3.72-11.01c0.68-2.29,1.32-4.6,1.88-6.93
			c0.92-3.86,1.75-9.47,1.96-10.94l-1.9,1.03c-0.02,0.17-0.04,0.34-0.07,0.51c-0.25,1.81-0.56,3.61-0.9,5.4
			c-0.57,3-1.24,5.97-2,8.92c-0.97,3.75-2.09,7.47-3.38,11.12c-1.45,4.09-3.11,8.11-5.05,11.99c-1.42,2.84-3,5.56-4.72,8.19
			c-0.89,1.37-1.83,2.72-2.79,4.05c-0.37,0.51-0.75,1.03-1.12,1.54c-0.16,0.22-0.7,1.07-0.7,1.07c0.03-0.01,0.07-0.03,0.1-0.04
			C620.9-461.86,621.09-461.95,621.54-462.33z"/>
		
			<linearGradient id="SVGID_00000157282513570400075790000013533292721273507720_" gradientUnits="userSpaceOnUse" x1="999.7326" y1="-302.0972" x2="1006.8026" y2="-249.9885" gradientTransform="matrix(0.9984 -0.0568 0.0568 0.9984 -379.264 -147.2535)">
			<stop  offset="0.1455" style="stop-color:#036EB8"/>
			<stop  offset="0.4103" style="stop-color:#E5352B"/>
			<stop  offset="0.6415" style="stop-color:#F8B62D"/>
			<stop  offset="0.8744" style="stop-color:#8FC31F"/>
		</linearGradient>
		<path style="fill:url(#SVGID_00000157282513570400075790000013533292721273507720_);" d="M606.65-484.22
			c-2.41-1.46-3.69-1.04-3.69-1.04c8.44,1.63,11.44,20.15,11.75,22.23c-0.06-0.12-0.25-0.58-0.72-2.11
			c-0.34-1.12-1.72-6.14-2.01-6.96c-1.14-3.28-2.53-6.67-4.01-8.79c-3.62-5.2-7.59-3.4-7.59-3.4c6.84-0.76,10.67,11.22,12.14,16.82
			c1.47,5.6,3,6.32,3,6.32C613.94-475.26,609.28-482.63,606.65-484.22z"/>
		
			<linearGradient id="SVGID_00000070077931524509917210000010598092363483133115_" gradientUnits="userSpaceOnUse" x1="979.5776" y1="-299.3626" x2="986.6476" y2="-247.2539" gradientTransform="matrix(0.9984 -0.0568 0.0568 0.9984 -379.264 -147.2535)">
			<stop  offset="0.1455" style="stop-color:#036EB8"/>
			<stop  offset="0.4103" style="stop-color:#E5352B"/>
			<stop  offset="0.6415" style="stop-color:#F8B62D"/>
			<stop  offset="0.8744" style="stop-color:#8FC31F"/>
		</linearGradient>
		<path style="fill:url(#SVGID_00000070077931524509917210000010598092363483133115_);" d="M581.26-460.81
			c0.57-1.67,1.16-3.33,1.79-4.98c0.49-1.28,1-2.55,1.54-3.81c0.41-0.96,0.83-1.91,1.27-2.85c1.09-2.31,2.39-4.53,3.77-6.68
			c1.22-1.9,2.53-3.75,4.03-5.44c1.18-1.34,2.48-2.62,4-3.56c0.22-0.13,0.44-0.26,0.66-0.38c3.8-1.96,8-0.21,8-0.21
			c-0.08-0.25-1.5-0.8-1.97-0.9c-0.67-0.15-1.36-0.26-2.05-0.31c-0.43-0.03-0.86-0.04-1.28-0.04c-0.18,0-0.36,0.01-0.54,0.01
			c-0.24,0.01-0.49,0.03-0.74,0.06c-0.28,0.03-0.56,0.07-0.85,0.12c-0.11,0.02-0.23,0.04-0.34,0.06c-0.15,0.03-0.3,0.06-0.45,0.1
			c-0.36,0.08-0.71,0.17-1.05,0.27c0,0,0,0,0,0c0,0,0,0,0,0c-0.16,0.05-0.31,0.1-0.47,0.15c-0.23,0.08-0.46,0.15-0.69,0.24
			c-0.51,0.2-1.02,0.42-1.51,0.66c-0.04,0.02-0.07,0.04-0.11,0.05c-0.24,0.12-0.48,0.25-0.71,0.38c-0.14,0.08-0.28,0.16-0.41,0.24
			c-0.16,0.1-0.32,0.2-0.48,0.31c-1.93,1.26-3.91,3.14-6.15,5.76c-6.07,7.08-15.1,32.09-15.92,36.22l2.55-0.83
			c0.99-4.58,3.99-12.72,6.91-20.42c2.99-7.89,7.68-16.13,14.18-20.43c0.1-0.06,0.19-0.13,0.29-0.19c0.27-0.17,0.54-0.33,0.81-0.48
			c0.11-0.06,0.21-0.12,0.32-0.18c0.14-0.07,0.27-0.15,0.41-0.22l0,0.01c-11.45,6.35-19.82,38.11-20.63,41.39l1.83-0.56
			c0.55-2.13,1.4-5.31,2.02-7.42C579.92-456.72,580.57-458.77,581.26-460.81z"/>
	</g>
	<g>
		<path class="st8" d="M502.12-391.94h6.84l-0.75,2.14h13.85v6.62h-7.54v2.88h8.66v6.74h-7.97c1.14,0.98,2.35,1.78,3.64,2.39
			c1.28,0.61,2.73,1.14,4.33,1.59v7.23c-2.67-0.61-4.95-1.42-6.82-2.42c-1.87-1-3.61-2.48-5.21-4.44c-1.64,1.96-3.38,3.44-5.21,4.44
			c-1.84,1-4.11,1.81-6.82,2.42v-7.23c1.6-0.45,3.05-0.98,4.33-1.59c1.28-0.61,2.49-1.41,3.64-2.39h-7.97v-6.74h8.56v-2.88h-8.61
			L502.12-391.94z M544.63-361.87v25.3h-42.89v-25.3H544.63z M537.68-352.19v-3H508.7v3H537.68z M537.68-343.25v-3H508.7v3H537.68z
			 M525.43-390.1h20.48v25.73h-20.48V-390.1z M539.23-372.04v-10.41h-7.11v10.41H539.23z"/>
		<path class="st8" d="M581.69-354.89c-4.03-7.47-6.19-15.62-6.47-24.44h-2.73c-1.14,6.29-3.37,12.07-6.68,17.33h2.3v18.01h7.06v7.9
			h-13.96v-19.85c-3.24,3.63-7.01,6.64-11.28,9v-9.55c4.14-2.9,7.49-6.24,10.08-10.01c2.58-3.78,4.45-8.05,5.59-12.83h-15.13v-7.9
			h20.53v-4.9h7.06v4.9h20.53v7.9h-16.47c0.25,6.78,1.73,12.97,4.44,18.56l5.08-12.86h6.79l-5.35,13.54h-6.2
			c2.82,5.63,6.72,10.31,11.71,14.03v9.86C591.35-341.19,585.71-347.41,581.69-354.89z"/>
		<path class="st8" d="M603.66-366.46h5.03c0,10.53-0.64,20.07-1.93,28.6h-5.29C602.93-347.09,603.66-356.62,603.66-366.46z
			 M602.06-376.75h7.7v-5.33c-2.28,0.12-4.62,0.18-7.01,0.18v-7.47c5.7,0,12.01-0.59,18.93-1.78v7.53
			c-2.42,0.45-4.12,0.74-5.08,0.86v6h6.1v7.47h-6.1v4.65l5.99,3.37v8.76l-5.99-3.37v20.4h-6.47v-33.81h-8.07V-376.75z M623.77-353.6
			l14.81-3.37v-34.18h6.95v32.65l5.29-1.23v8.21l-5.29,1.23v14.82h-6.95v-13.29l-14.81,3.37V-353.6z M624.25-373.75l10.8,4.29v7.66
			l-10.8-4.29V-373.75z M626.39-387.65l10.8,4.29v7.66l-10.8-4.29V-387.65z"/>
		<path class="st8" d="M652.91-362.42l5.56-1.53v-11.33h-5.03V-383h5.03v-8.51h6.95v8.51h5.08v7.72h-5.08v9.49l5.61-1.53v8.51
			l-5.61,1.53v21.19h-11.07v-7.41h4.12v-11.94l-5.56,1.53V-362.42z M681.15-349.92c-3.92-5.35-6.6-12.23-8.02-20.64h10.43v-8.21
			h-10.8v-7.47h10.8v-4.96h6.84v4.96h11.12v7.47H690.4v8.21h10.48c-0.75,8-3.98,15.13-9.68,21.38c3.32,2.82,6.58,4.72,9.79,5.7v8.15
			c-6.2-2.82-11.14-5.86-14.81-9.13c-4.46,3.68-9.61,6.57-15.45,8.7v-8.15C674.75-345.8,678.22-347.8,681.15-349.92z M686.28-354.27
			c2.78-2.9,4.85-5.96,6.2-9.19h-11.39C682.23-360.32,683.96-357.25,686.28-354.27z"/>
	</g>
	<g>
		<path class="st8" d="M500.36-321.37l4.17-6.46h-3.79v-0.85h5.04v0.6l-4.17,6.46h4.2v0.85h-5.45V-321.37z"/>
		<path class="st8" d="M513.63-328.69h1.01v3.31h3.68v-3.31h1.01v7.91h-1.01v-3.72h-3.68v3.72h-1.01V-328.69z"/>
		<path class="st8" d="M527.75-328.69h1.01v7.91h-1.01V-328.69z"/>
		<path class="st8" d="M547.15-323.84l-2.38-4.84h1.07l1.02,2.23c0.25,0.58,0.49,1.13,0.77,1.72h0.05c0.27-0.59,0.55-1.14,0.79-1.72
			l1.02-2.23h1.04l-2.38,4.84v3.07h-1.01V-323.84z"/>
		<path class="st8" d="M557.73-328.69h1.01v7.91h-1.01V-328.69z"/>
		<path class="st8" d="M577.49-327.83h-2.39v-0.85h5.79v0.85h-2.39v7.06h-1.01V-327.83z"/>
		<path class="st8" d="M588.58-328.69h4.56v0.85h-3.55v2.48h3v0.85h-3v2.88h3.67v0.85h-4.68V-328.69z"/>
		<path class="st8" d="M600.74-324.72c0-2.55,1.5-4.11,3.51-4.11c0.96,0,1.71,0.47,2.18,0.98l-0.55,0.66
			c-0.42-0.44-0.94-0.75-1.61-0.75c-1.49,0-2.49,1.22-2.49,3.2c0,1.99,0.95,3.23,2.45,3.23c0.76,0,1.33-0.33,1.83-0.89l0.55,0.63
			c-0.62,0.73-1.4,1.14-2.43,1.14C602.21-320.63,600.74-322.16,600.74-324.72z"/>
		<path class="st8" d="M614.34-328.69h1.01v3.31h3.68v-3.31h1.01v7.91h-1.01v-3.72h-3.68v3.72h-1.01V-328.69z"/>
		<path class="st8" d="M628.47-328.69h1.04l2.86,4.97l0.85,1.64h0.05c-0.05-0.8-0.13-1.69-0.13-2.52v-4.09h0.96v7.91h-1.04
			l-2.86-4.98l-0.85-1.63h-0.05c0.05,0.8,0.13,1.64,0.13,2.47v4.14h-0.96V-328.69z"/>
		<path class="st8" d="M642.07-324.76c0-2.53,1.39-4.07,3.38-4.07c1.99,0,3.38,1.54,3.38,4.07c0,2.53-1.39,4.13-3.38,4.13
			C643.46-320.63,642.07-322.23,642.07-324.76z M647.79-324.76c0-1.97-0.93-3.19-2.34-3.19c-1.41,0-2.34,1.22-2.34,3.19
			s0.93,3.24,2.34,3.24C646.86-321.52,647.79-322.79,647.79-324.76z"/>
		<path class="st8" d="M656.8-328.69h1.01v7.06h3.45v0.85h-4.46V-328.69z"/>
		<path class="st8" d="M668.15-324.76c0-2.53,1.39-4.07,3.38-4.07c1.99,0,3.38,1.54,3.38,4.07c0,2.53-1.39,4.13-3.38,4.13
			C669.55-320.63,668.15-322.23,668.15-324.76z M673.87-324.76c0-1.97-0.93-3.19-2.34-3.19c-1.41,0-2.34,1.22-2.34,3.19
			s0.93,3.24,2.34,3.24C672.94-321.52,673.87-322.79,673.87-324.76z"/>
		<path class="st8" d="M682.42-324.72c0-2.55,1.53-4.11,3.63-4.11c1.1,0,1.82,0.5,2.28,0.98l-0.55,0.66
			c-0.4-0.41-0.91-0.75-1.7-0.75c-1.59,0-2.62,1.22-2.62,3.2c0,1.99,0.94,3.23,2.63,3.23c0.57,0,1.11-0.17,1.43-0.46v-2.06h-1.68
			v-0.83h2.59v3.33c-0.51,0.53-1.37,0.92-2.44,0.92C683.91-320.63,682.42-322.16,682.42-324.72z"/>
		<path class="st8" d="M697.87-323.84l-2.38-4.84h1.08l1.02,2.23c0.25,0.58,0.49,1.13,0.77,1.72h0.05c0.27-0.59,0.55-1.14,0.79-1.72
			l1.02-2.23h1.04l-2.38,4.84v3.07h-1.01V-323.84z"/>
	</g>
</g>
</svg>
