<svg id="图层_1" data-name="图层 1" xmlns="http://www.w3.org/2000/svg" viewBox="0 0 94 94"><defs><style>.cls-1{fill:#2c3f92;}.cls-2{fill:#b5d3ff;fill-opacity:0.3;fill-rule:evenodd;}.cls-3{fill:#fff;}.cls-4,.cls-5{fill:none;}.cls-4{stroke:#fff;stroke-width:2.9px;}</style></defs><circle class="cls-1" cx="37.4" cy="39.2" r="22.6"/><path class="cls-2" d="M792.9,359.9h-.1a23.3,23.3,0,1,1,0-46.6,24.89,24.89,0,0,1,6.1.8,21.27,21.27,0,0,1,38.5,12.5v.7a16.69,16.69,0,0,1-4.7,32.7H792.9Z" transform="translate(-762.4 -282.5)"/><path class="cls-3" d="M814.4,322c4.2,0,7.6,3.1,7.6,6.9a6.11,6.11,0,0,1-1,3.4,7.72,7.72,0,0,1-4.3,3.2,5,5,0,0,1-1.2.2,1.37,1.37,0,0,1-1.4-1.4,1.37,1.37,0,0,1,1.4-1.4.37.37,0,0,0,.3-.1,4.47,4.47,0,0,0,2.8-2,3.2,3.2,0,0,0,.5-1.9c0-2.2-2.1-4.1-4.7-4.1a5.14,5.14,0,0,0-2.5.6,3.92,3.92,0,0,0-2.2,3.4v11.9a7,7,0,0,1-3.6,5.9,7.82,7.82,0,0,1-3.9,1c-4.2,0-7.6-3.1-7.6-6.9a7,7,0,0,1,1-3.4,7.72,7.72,0,0,1,4.3-3.2,7.38,7.38,0,0,1,1.2-.2,1.37,1.37,0,0,1,1.4,1.4,1.78,1.78,0,0,1-.4,1,1.28,1.28,0,0,1-1,.4.37.37,0,0,0-.3.1,5.36,5.36,0,0,0-2.8,2,3.2,3.2,0,0,0-.5,1.9c0,2.2,2.1,4.1,4.7,4.1a5.14,5.14,0,0,0,2.5-.6,3.92,3.92,0,0,0,2.2-3.4V329a7,7,0,0,1,3.6-5.9A7.94,7.94,0,0,1,814.4,322Z" transform="translate(-762.4 -282.5)"/><path class="cls-4" d="M814.4,322c4.2,0,7.6,3.1,7.6,6.9a6.11,6.11,0,0,1-1,3.4,7.72,7.72,0,0,1-4.3,3.2,5,5,0,0,1-1.2.2,1.37,1.37,0,0,1-1.4-1.4,1.37,1.37,0,0,1,1.4-1.4.37.37,0,0,0,.3-.1,4.47,4.47,0,0,0,2.8-2,3.2,3.2,0,0,0,.5-1.9c0-2.2-2.1-4.1-4.7-4.1a5.14,5.14,0,0,0-2.5.6,3.92,3.92,0,0,0-2.2,3.4v11.9a7,7,0,0,1-3.6,5.9,7.82,7.82,0,0,1-3.9,1c-4.2,0-7.6-3.1-7.6-6.9a7,7,0,0,1,1-3.4,7.72,7.72,0,0,1,4.3-3.2,7.38,7.38,0,0,1,1.2-.2,1.37,1.37,0,0,1,1.4,1.4,1.78,1.78,0,0,1-.4,1,1.28,1.28,0,0,1-1,.4.37.37,0,0,0-.3.1,5.36,5.36,0,0,0-2.8,2,3.2,3.2,0,0,0-.5,1.9c0,2.2,2.1,4.1,4.7,4.1a5.14,5.14,0,0,0,2.5-.6,3.92,3.92,0,0,0,2.2-3.4V329a7,7,0,0,1,3.6-5.9A7.94,7.94,0,0,1,814.4,322Z" transform="translate(-762.4 -282.5)"/><rect class="cls-5" width="94" height="94"/></svg>