<?xml version="1.0" encoding="utf-8"?>
<!-- Generator: Adobe Illustrator 26.0.1, SVG Export Plug-In . SVG Version: 6.00 Build 0)  -->
<svg version="1.1" id="图层_1" xmlns="http://www.w3.org/2000/svg" xmlns:xlink="http://www.w3.org/1999/xlink" x="0px" y="0px"
	 viewBox="0 0 354.41 212.79" style="enable-background:new 0 0 354.41 212.79;" xml:space="preserve">
<style type="text/css">
	.st0{fill:url(#SVGID_1_);}
	.st1{fill:#2C3F95;}
	.st2{fill:none;stroke:#9D318D;stroke-miterlimit:10;}
	.st3{fill:url(#SVGID_00000016765912417519633600000002051079095424375940_);}
	.st4{fill:url(#SVGID_00000107574357952687052840000010385627829796423355_);}
	.st5{fill:url(#SVGID_00000013184475999666935320000005167132405223406723_);}
	.st6{fill:url(#SVGID_00000033354587506534545030000013082902903207773868_);}
	.st7{fill:#2C3F95;stroke:#2C3F95;stroke-width:0.75;stroke-miterlimit:10;}
</style>
<g>
	<linearGradient id="SVGID_1_" gradientUnits="userSpaceOnUse" x1="21.4698" y1="104.62" x2="76.1375" y2="144.1821">
		<stop  offset="0" style="stop-color:#036EB8"/>
		<stop  offset="0.021" style="stop-color:#466DAB"/>
		<stop  offset="0.0741" style="stop-color:#82678B"/>
		<stop  offset="0.1285" style="stop-color:#A75E6E"/>
		<stop  offset="0.1832" style="stop-color:#C05356"/>
		<stop  offset="0.2383" style="stop-color:#D14843"/>
		<stop  offset="0.2939" style="stop-color:#DC3E36"/>
		<stop  offset="0.3505" style="stop-color:#E3382E"/>
		<stop  offset="0.4095" style="stop-color:#E5352B"/>
		<stop  offset="0.6415" style="stop-color:#F8B62D"/>
		<stop  offset="0.7632" style="stop-color:#8FC31F"/>
	</linearGradient>
	<polygon class="st0" points="63.93,123.75 63.78,122.52 62.09,122.37 60.64,121.45 29.36,95.16 27.21,92.95 56.8,143.98 
		59.18,147.74 59.87,147.96 60.33,146.89 	"/>
	<path class="st1" d="M146.8,88.66L128.7,105.8l-68.83,42.16l3.54-25.88c0,0,1.61,0.29,3.68-0.23l2.84-1.33l75.65-32.28l2.31-0.98
		c0,0-0.15,0.35-0.63,0.93C147.11,88.36,146.8,88.66,146.8,88.66z"/>
	<path class="st2" d="M120.64,63.91"/>
	<path class="st1" d="M63.44,122.01c-1.59-0.25-2.61-0.9-2.67-0.94c-10.63-8.46-31.17-25.37-32.83-28.81
		c-0.55-1.14-0.63-2.13-0.24-2.96c0.72-1.53,2.83-2.06,2.86-2.07L57,80.19c0.25-0.07,0.39-0.32,0.33-0.56
		c-0.07-0.25-0.32-0.39-0.56-0.33l-26.43,7.05c-0.1,0.03-2.55,0.64-3.46,2.57c-0.51,1.09-0.43,2.35,0.24,3.75
		c2.17,4.49,31.82,28.13,33.12,29.15c0.09,0.06,1.26,0.83,3.1,1.11L63.44,122.01L63.44,122.01z"/>
	<g>
		<path class="st1" d="M108,67.17c-0.2,0-0.39-0.14-0.44-0.34c-0.06-0.25,0.08-0.5,0.33-0.56l11.34-2.65
			c0.25-0.06,0.5,0.08,0.56,0.33c0.06,0.25-0.08,0.5-0.33,0.56l-11.34,2.65C108.08,67.17,108.04,67.17,108,67.17z"/>
	</g>
	<path class="st1" d="M68.77,122.04c4.56-2.22,77.16-32.98,77.89-33.29c0.04-0.02,0.08-0.04,0.12-0.08
		c0.07-0.06,1.63-1.43,1.61-3.33c-0.01-1.16-0.61-2.24-1.77-3.2c-3.48-2.87-13.83-12.31-13.93-12.4c-0.19-0.17-0.48-0.16-0.65,0.03
		c-0.17,0.19-0.16,0.48,0.03,0.65c0.1,0.09,10.47,9.54,13.97,12.43c0.94,0.78,1.43,1.62,1.44,2.49c0.02,1.3-1.01,2.36-1.25,2.58
		c-2.69,1.14-73.35,31.08-77.86,33.28c-1.9,0.93-3.61,1-4.93,0.8l0,0.01l-0.11,0.9c0.41,0.06,0.85,0.1,1.33,0.1
		C65.87,123.03,67.27,122.78,68.77,122.04z"/>
	<g>
		
			<linearGradient id="SVGID_00000013887811983529422190000011349126496957717132_" gradientUnits="userSpaceOnUse" x1="468.0272" y1="208.364" x2="476.305" y2="269.374" gradientTransform="matrix(0.9984 -0.0568 0.0568 0.9984 -379.264 -147.2535)">
			<stop  offset="0" style="stop-color:#036EB8"/>
			<stop  offset="0.021" style="stop-color:#466DAB"/>
			<stop  offset="0.0741" style="stop-color:#82678B"/>
			<stop  offset="0.1285" style="stop-color:#A75E6E"/>
			<stop  offset="0.1832" style="stop-color:#C05356"/>
			<stop  offset="0.2383" style="stop-color:#D14843"/>
			<stop  offset="0.2939" style="stop-color:#DC3E36"/>
			<stop  offset="0.3505" style="stop-color:#E3382E"/>
			<stop  offset="0.4095" style="stop-color:#E5352B"/>
			<stop  offset="0.6415" style="stop-color:#F8B62D"/>
			<stop  offset="0.7632" style="stop-color:#8FC31F"/>
		</linearGradient>
		<path style="fill:url(#SVGID_00000013887811983529422190000011349126496957717132_);" d="M143.27,21.68
			c-1.1,8.96-8.16,48.53-31.95,66.95c-0.52,0.4-0.91,0.64-1.22,0.78c-0.37,0.17-0.8-0.03-0.93-0.39c-0.02-0.06-0.05-0.15-0.08-0.43
			c-0.97-8.46-2.72-17.42-7.31-24.77c-1.19-1.9-2.59-3.68-4.27-5.17c-1.47-1.31-3.03-2.1-4.98-2.41c-2.64-0.41-5.33,0.23-7.56,1.81
			c-6.43,4.53-11.27,13.32-14.68,21.8c-3.34,8.31-6.23,20.17-7.11,24.08l3.06-0.88c0.08-0.37,0.14-0.65,0.16-0.76
			c1-4.61,7.72-33.23,20.16-41.99c1.62-1.14,3.65-1.63,5.55-1.34c5.78,0.9,9.2,9.27,10.85,14.03c0.76,2.18,1.38,4.41,1.88,6.66
			c0.51,2.27,0.9,4.58,1.23,6.88c0.06,0.43,0.12,0.86,0.17,1.3c0.07,0.56,0.09,1.16,0.4,1.65c0.3,0.47,0.81,0.78,1.33,0.95
			c1.02,0.35,2.15,0.12,3.07-0.4c1.69-0.95,3.2-2.23,4.65-3.5c1.32-1.16,2.59-2.39,3.79-3.68c1.23-1.31,2.4-2.67,3.52-4.08
			c1.13-1.42,2.21-2.89,3.24-4.39c1.04-1.51,2.02-3.05,2.97-4.61c0.94-1.56,1.84-3.14,2.7-4.75c0.85-1.58,1.65-3.18,2.43-4.79
			c0.75-1.57,1.47-3.15,2.16-4.74c0.66-1.52,1.29-3.06,1.9-4.6c0.57-1.45,1.11-2.91,1.64-4.37c0.39-1.09,0.77-2.19,1.13-3.3
			c3.99-12.15,5.55-20.54,6.02-23.69L143.27,21.68z"/>
		
			<linearGradient id="SVGID_00000042726627560984411430000012862387416933643395_" gradientUnits="userSpaceOnUse" x1="489.8625" y1="205.4015" x2="498.1403" y2="266.4114" gradientTransform="matrix(0.9984 -0.0568 0.0568 0.9984 -379.264 -147.2535)">
			<stop  offset="0.1455" style="stop-color:#036EB8"/>
			<stop  offset="0.4103" style="stop-color:#E5352B"/>
			<stop  offset="0.6415" style="stop-color:#F8B62D"/>
			<stop  offset="0.8744" style="stop-color:#8FC31F"/>
		</linearGradient>
		<path style="fill:url(#SVGID_00000042726627560984411430000012862387416933643395_);" d="M112.33,87.02
			c1.43-1.2,2.99-2.64,3.56-3.25c0.21-0.22,0.41-0.44,0.61-0.65c2.76-2.99,4.99-5.8,7.56-9.75c3.64-5.61,6.54-12.04,8.72-17.57
			c5.99-15.25,8.2-29.48,8.7-33.14l-2,1.12c-0.33,2.19-0.49,4.01-0.9,6.19c-0.75,4-1.78,8.19-2.82,12.12
			c-0.92,3.47-2.07,6.73-3.25,10.12c-1.03,2.97-2.16,5.91-3.42,8.8c-1.09,2.5-2.26,4.97-3.54,7.38c-1.23,2.32-2.65,4.53-4.11,6.7
			c-0.82,1.23-1.67,2.45-2.56,3.65c-0.86,1.1-1.11,1.56-1.86,2.4l-0.01-0.02c0.53-0.8,1.05-1.61,1.57-2.42
			c1.41-2.15,2.82-4.29,4.08-6.53c2.46-4.38,4.48-9.01,6.28-13.7c1.62-4.24,3.06-8.54,4.35-12.89c0.8-2.68,1.55-5.39,2.2-8.11
			c1.07-4.52,2.05-11.09,2.29-12.81l-2.23,1.21c-0.03,0.2-0.05,0.4-0.08,0.6c-0.29,2.12-0.65,4.23-1.05,6.33
			c-0.67,3.51-1.45,6.99-2.34,10.45c-1.13,4.39-2.45,8.74-3.96,13.02c-1.7,4.79-3.65,9.49-5.91,14.04c-1.66,3.32-3.51,6.5-5.53,9.59
			c-1.05,1.6-2.14,3.18-3.27,4.74c-0.44,0.6-0.88,1.2-1.31,1.8c-0.19,0.26-0.82,1.26-0.82,1.26c0.04-0.02,0.08-0.03,0.12-0.05
			C111.58,87.57,111.81,87.46,112.33,87.02z"/>
		
			<linearGradient id="SVGID_00000031191058629775259160000009051635440937120145_" gradientUnits="userSpaceOnUse" x1="457.1667" y1="209.8376" x2="465.4444" y2="270.8476" gradientTransform="matrix(0.9984 -0.0568 0.0568 0.9984 -379.264 -147.2535)">
			<stop  offset="0.1455" style="stop-color:#036EB8"/>
			<stop  offset="0.4103" style="stop-color:#E5352B"/>
			<stop  offset="0.6415" style="stop-color:#F8B62D"/>
			<stop  offset="0.8744" style="stop-color:#8FC31F"/>
		</linearGradient>
		<path style="fill:url(#SVGID_00000031191058629775259160000009051635440937120145_);" d="M94.9,61.39
			c-2.83-1.7-4.32-1.22-4.32-1.22c9.88,1.91,13.4,23.59,13.76,26.02c-0.07-0.14-0.3-0.68-0.84-2.47c-0.4-1.31-2.01-7.19-2.35-8.15
			c-1.33-3.84-2.96-7.81-4.69-10.3c-4.23-6.09-8.89-3.98-8.89-3.98c8.01-0.89,12.49,13.14,14.22,19.69c1.73,6.55,3.51,7.4,3.51,7.4
			C103.43,71.88,97.98,63.25,94.9,61.39z"/>
		
			<linearGradient id="SVGID_00000062171364877453597190000001525820434155243454_" gradientUnits="userSpaceOnUse" x1="433.5688" y1="213.0393" x2="441.8465" y2="274.0493" gradientTransform="matrix(0.9984 -0.0568 0.0568 0.9984 -379.264 -147.2535)">
			<stop  offset="0.1455" style="stop-color:#036EB8"/>
			<stop  offset="0.4103" style="stop-color:#E5352B"/>
			<stop  offset="0.6415" style="stop-color:#F8B62D"/>
			<stop  offset="0.8744" style="stop-color:#8FC31F"/>
		</linearGradient>
		<path style="fill:url(#SVGID_00000062171364877453597190000001525820434155243454_);" d="M65.18,88.79
			c0.66-1.96,1.36-3.9,2.1-5.83c0.57-1.5,1.17-2.98,1.8-4.46c0.48-1.12,0.97-2.23,1.49-3.33c1.27-2.71,2.8-5.31,4.41-7.83
			c1.43-2.22,2.97-4.39,4.71-6.37c1.38-1.56,2.9-3.06,4.68-4.16c0.25-0.16,0.51-0.3,0.78-0.44c4.45-2.3,9.37-0.25,9.37-0.25
			c-0.09-0.29-1.76-0.94-2.31-1.06c-0.79-0.17-1.6-0.31-2.4-0.36c-0.5-0.03-1-0.05-1.5-0.05c-0.21,0-0.42,0.01-0.63,0.02
			c-0.29,0.01-0.57,0.03-0.86,0.07c-0.33,0.04-0.66,0.09-0.99,0.15c-0.13,0.02-0.27,0.05-0.4,0.07c-0.18,0.04-0.35,0.07-0.52,0.11
			c-0.42,0.09-0.83,0.2-1.23,0.32c0,0,0,0,0,0c0,0,0,0,0,0c-0.19,0.06-0.37,0.11-0.55,0.17c-0.27,0.09-0.54,0.18-0.8,0.28
			c-0.6,0.23-1.19,0.49-1.77,0.78c-0.04,0.02-0.09,0.04-0.13,0.06c-0.28,0.14-0.56,0.29-0.83,0.45c-0.16,0.09-0.33,0.19-0.48,0.29
			c-0.19,0.11-0.38,0.24-0.57,0.36c-2.26,1.47-4.58,3.67-7.21,6.74c-7.1,8.29-17.68,37.57-18.64,42.41l2.98-0.97
			c1.15-5.36,4.68-14.89,8.09-23.9c3.5-9.23,8.99-18.89,16.61-23.92c0.11-0.07,0.22-0.15,0.34-0.22c0.31-0.2,0.63-0.38,0.95-0.56
			c0.13-0.07,0.25-0.14,0.38-0.21c0.16-0.09,0.32-0.18,0.48-0.26l0,0.01c-13.4,7.44-23.21,44.62-24.15,48.46l2.15-0.65
			c0.64-2.49,1.63-6.22,2.37-8.69C63.61,93.59,64.37,91.18,65.18,88.79z"/>
	</g>
	<g>
		<path class="st7" d="M128.48,121.95h6.84l-0.75,2.14h13.85v6.62h-7.54v2.88h8.66v6.74h-7.97c1.14,0.98,2.35,1.78,3.64,2.39
			c1.28,0.61,2.73,1.14,4.33,1.59v7.23c-2.67-0.61-4.95-1.42-6.82-2.42c-1.87-1-3.61-2.48-5.21-4.44c-1.64,1.96-3.38,3.44-5.21,4.44
			c-1.84,1-4.11,1.81-6.82,2.42v-7.23c1.6-0.45,3.05-0.98,4.33-1.59c1.28-0.61,2.49-1.41,3.64-2.39h-7.97v-6.74h8.56v-2.88h-8.61
			L128.48,121.95z M170.99,152.02v25.3h-42.89v-25.3H170.99z M164.04,161.7v-3h-28.98v3H164.04z M164.04,170.64v-3h-28.98v3H164.04z
			 M151.79,123.78h20.48v25.73h-20.48V123.78z M165.59,141.85v-10.41h-7.11v10.41H165.59z"/>
		<path class="st7" d="M208.05,159c-4.03-7.47-6.19-15.62-6.47-24.44h-2.73c-1.14,6.29-3.37,12.07-6.68,17.33h2.3v18.01h7.06v7.9
			h-13.96v-19.85c-3.24,3.63-7.01,6.64-11.28,9v-9.56c4.14-2.9,7.49-6.24,10.08-10.01c2.58-3.78,4.45-8.05,5.59-12.83h-15.13v-7.9
			h20.53v-4.9h7.06v4.9h20.53v7.9h-16.47c0.25,6.78,1.73,12.97,4.44,18.56l5.08-12.86h6.79l-5.35,13.54h-6.2
			c2.82,5.63,6.72,10.31,11.71,14.03v9.86C217.71,172.7,212.08,166.48,208.05,159z"/>
		<path class="st7" d="M230.03,147.43h5.03c0,10.53-0.64,20.07-1.93,28.6h-5.29C229.29,166.8,230.03,157.27,230.03,147.43z
			 M228.42,137.14h7.7v-5.33c-2.28,0.12-4.62,0.18-7.01,0.18v-7.47c5.7,0,12.01-0.59,18.93-1.78v7.53
			c-2.42,0.45-4.12,0.74-5.08,0.86v6h6.1v7.47h-6.1v4.65l5.99,3.37v8.76l-5.99-3.37v20.4h-6.47v-33.81h-8.07V137.14z M250.13,160.29
			l14.81-3.37v-34.18h6.95v32.65l5.29-1.23v8.21l-5.29,1.23v14.82h-6.95v-13.29l-14.81,3.37V160.29z M250.61,140.14l10.8,4.29v7.66
			l-10.8-4.29V140.14z M252.75,126.23l10.8,4.29v7.66l-10.8-4.29V126.23z"/>
		<path class="st7" d="M279.27,151.47l5.56-1.53v-11.33h-5.03v-7.72h5.03v-8.51h6.95v8.51h5.08v7.72h-5.08v9.49l5.61-1.53v8.51
			l-5.61,1.53v21.19h-11.07v-7.41h4.12v-11.94l-5.56,1.53V151.47z M307.51,163.96c-3.92-5.35-6.6-12.23-8.02-20.64h10.43v-8.21
			h-10.8v-7.47h10.8v-4.96h6.84v4.96h11.12v7.47h-11.12v8.21h10.48c-0.75,8-3.98,15.13-9.68,21.38c3.32,2.82,6.58,4.72,9.79,5.7
			v8.15c-6.2-2.82-11.14-5.86-14.81-9.13c-4.46,3.68-9.61,6.57-15.45,8.7v-8.15C301.11,168.09,304.58,166.09,307.51,163.96z
			 M312.64,159.62c2.78-2.9,4.85-5.96,6.2-9.19h-11.39C308.59,153.57,310.32,156.63,312.64,159.62z"/>
	</g>
	<g>
		<path class="st7" d="M126.73,192.51l4.17-6.46h-3.79v-0.85h5.04v0.6l-4.17,6.46h4.2v0.85h-5.45V192.51z"/>
		<path class="st7" d="M139.99,185.2H141v3.31h3.68v-3.31h1.01v7.91h-1.01v-3.72H141v3.72h-1.01V185.2z"/>
		<path class="st7" d="M154.11,185.2h1.01v7.91h-1.01V185.2z"/>
		<path class="st7" d="M173.51,190.05l-2.38-4.84h1.07l1.02,2.23c0.25,0.58,0.49,1.13,0.77,1.72h0.05c0.27-0.59,0.55-1.14,0.79-1.72
			l1.02-2.23h1.04l-2.38,4.84v3.07h-1.01V190.05z"/>
		<path class="st7" d="M184.1,185.2h1.01v7.91h-1.01V185.2z"/>
		<path class="st7" d="M203.86,186.05h-2.39v-0.85h5.79v0.85h-2.39v7.06h-1.01V186.05z"/>
		<path class="st7" d="M214.94,185.2h4.56v0.85h-3.55v2.48h3v0.85h-3v2.88h3.67v0.85h-4.68V185.2z"/>
		<path class="st7" d="M227.1,189.16c0-2.55,1.5-4.11,3.51-4.11c0.96,0,1.71,0.47,2.18,0.98l-0.55,0.66
			c-0.42-0.44-0.94-0.75-1.61-0.75c-1.49,0-2.49,1.22-2.49,3.19c0,1.99,0.95,3.23,2.45,3.23c0.76,0,1.33-0.33,1.83-0.89l0.55,0.63
			c-0.62,0.73-1.4,1.14-2.43,1.14C228.58,193.26,227.1,191.73,227.1,189.16z"/>
		<path class="st7" d="M240.71,185.2h1.01v3.31h3.68v-3.31h1.01v7.91h-1.01v-3.72h-3.68v3.72h-1.01V185.2z"/>
		<path class="st7" d="M254.83,185.2h1.04l2.86,4.97l0.85,1.64h0.05c-0.05-0.8-0.13-1.69-0.13-2.52v-4.09h0.96v7.91h-1.04
			l-2.86-4.98l-0.85-1.63h-0.05c0.05,0.8,0.13,1.64,0.13,2.47v4.14h-0.96V185.2z"/>
		<path class="st7" d="M268.43,189.13c0-2.53,1.39-4.07,3.38-4.07c1.99,0,3.38,1.54,3.38,4.07c0,2.53-1.39,4.13-3.38,4.13
			C269.82,193.26,268.43,191.66,268.43,189.13z M274.15,189.13c0-1.97-0.93-3.19-2.34-3.19c-1.41,0-2.34,1.22-2.34,3.19
			s0.93,3.24,2.34,3.24C273.22,192.37,274.15,191.1,274.15,189.13z"/>
		<path class="st7" d="M283.16,185.2h1.01v7.06h3.45v0.85h-4.46V185.2z"/>
		<path class="st7" d="M294.51,189.13c0-2.53,1.39-4.07,3.38-4.07c1.99,0,3.38,1.54,3.38,4.07c0,2.53-1.39,4.13-3.38,4.13
			C295.91,193.26,294.51,191.66,294.51,189.13z M300.23,189.13c0-1.97-0.93-3.19-2.34-3.19c-1.41,0-2.34,1.22-2.34,3.19
			s0.93,3.24,2.34,3.24C299.31,192.37,300.23,191.1,300.23,189.13z"/>
		<path class="st7" d="M308.79,189.16c0-2.55,1.53-4.11,3.63-4.11c1.1,0,1.82,0.5,2.28,0.98l-0.55,0.66
			c-0.4-0.41-0.91-0.75-1.7-0.75c-1.59,0-2.62,1.22-2.62,3.19c0,1.99,0.94,3.23,2.63,3.23c0.57,0,1.11-0.17,1.43-0.46v-2.06h-1.68
			v-0.83h2.59v3.33c-0.51,0.53-1.37,0.92-2.44,0.92C310.27,193.26,308.79,191.73,308.79,189.16z"/>
		<path class="st7" d="M324.23,190.05l-2.38-4.84h1.08l1.02,2.23c0.25,0.58,0.49,1.13,0.77,1.72h0.05c0.27-0.59,0.55-1.14,0.79-1.72
			l1.02-2.23h1.04l-2.38,4.84v3.07h-1.01V190.05z"/>
	</g>
</g>
</svg>
