<?xml version="1.0" encoding="utf-8"?>
<!-- Generator: Adobe Illustrator 26.0.1, SVG Export Plug-In . SVG Version: 6.00 Build 0)  -->
<svg version="1.1" id="图层_1" xmlns="http://www.w3.org/2000/svg" xmlns:xlink="http://www.w3.org/1999/xlink" x="0px" y="0px"
	 viewBox="0 0 159.8 157.7" style="enable-background:new 0 0 159.8 157.7;" xml:space="preserve">
<style type="text/css">
	.st0{fill:url(#SVGID_1_);}
	.st1{fill:#2C3F95;}
	.st2{fill:none;stroke:#9D318D;stroke-miterlimit:10;}
	.st3{fill:url(#SVGID_00000163069723990021061790000015898822133373413549_);}
	.st4{fill:url(#SVGID_00000047782607630738403970000010889230734847250351_);}
	.st5{fill:url(#SVGID_00000086654090592439926780000005333633830553411210_);}
	.st6{fill:url(#SVGID_00000139977452968224569340000007703929052500935556_);}
</style>
<g>
	
		<linearGradient id="SVGID_1_" gradientUnits="userSpaceOnUse" x1="13.8935" y1="114.2941" x2="68.5612" y2="74.732" gradientTransform="matrix(1 0 0 -1 0 214)">
		<stop  offset="0" style="stop-color:#036EB8"/>
		<stop  offset="2.100000e-02" style="stop-color:#466DAB"/>
		<stop  offset="7.410000e-02" style="stop-color:#82678B"/>
		<stop  offset="0.1285" style="stop-color:#A75E6E"/>
		<stop  offset="0.1832" style="stop-color:#C05356"/>
		<stop  offset="0.2383" style="stop-color:#D14843"/>
		<stop  offset="0.2939" style="stop-color:#DC3E36"/>
		<stop  offset="0.3505" style="stop-color:#E3382E"/>
		<stop  offset="0.4095" style="stop-color:#E5352B"/>
		<stop  offset="0.6415" style="stop-color:#F8B62D"/>
		<stop  offset="0.7632" style="stop-color:#8FC31F"/>
	</linearGradient>
	<polygon class="st0" points="56.4,118.8 56.2,117.6 54.5,117.5 53.1,116.5 21.8,90.2 19.6,88 49.2,139.1 51.6,142.8 52.3,143 
		52.7,142 	"/>
	<path class="st1" d="M139.2,83.8l-18.1,17.1l-68.8,42.2l3.5-25.9c0,0,1.6,0.3,3.7-0.2l2.8-1.3L138,83.3l2.3-1c0,0-0.1,0.4-0.6,0.9
		C139.5,83.4,139.2,83.8,139.2,83.8z"/>
	<path class="st2" d="M113.1,59"/>
	<path class="st1" d="M55.9,117.1c-1.6-0.2-2.6-0.9-2.7-0.9C42.6,107.7,22,90.8,20.4,87.4c-0.5-1.1-0.6-2.1-0.2-3
		c0.7-1.5,2.8-2.1,2.9-2.1l26.4-7.1c0.2-0.1,0.4-0.3,0.3-0.6c-0.1-0.2-0.3-0.4-0.6-0.3l-26.4,7.1c-0.1,0-2.5,0.6-3.5,2.6
		c-0.5,1.1-0.4,2.4,0.2,3.8c2.2,4.5,31.8,28.1,33.1,29.1c0.1,0.1,1.3,0.8,3.1,1.1L55.9,117.1L55.9,117.1z"/>
	<g>
		<path class="st1" d="M100.4,62.3c-0.2,0-0.4-0.1-0.4-0.3c-0.1-0.2,0.1-0.5,0.3-0.6l11.3-2.6c0.2-0.1,0.5,0.1,0.6,0.3
			s-0.1,0.5-0.3,0.6l-11.3,2.6C100.5,62.3,100.5,62.3,100.4,62.3z"/>
	</g>
	<path class="st1" d="M61.2,117.1c4.6-2.2,77.2-33,77.9-33.3c0,0,0.1,0,0.1-0.1c0.1-0.1,1.6-1.4,1.6-3.3c0-1.2-0.6-2.2-1.8-3.2
		c-3.5-2.9-13.8-12.3-13.9-12.4c-0.2-0.2-0.5-0.2-0.7,0s-0.2,0.5,0,0.6c0.1,0.1,10.5,9.5,14,12.4c0.9,0.8,1.4,1.6,1.4,2.5
		c0,1.3-1,2.4-1.2,2.6c-2.7,1.1-73.4,31.1-77.9,33.3c-1.9,0.9-3.6,1-4.9,0.8v0l-0.1,0.9c0.4,0.1,0.8,0.1,1.3,0.1
		C58.3,118.1,59.7,117.9,61.2,117.1z"/>
	<g>
		
			<linearGradient id="SVGID_00000016057906129104056040000017986275312235602087_" gradientUnits="userSpaceOnUse" x1="434.8626" y1="-32.7387" x2="443.1403" y2="-93.7487" gradientTransform="matrix(0.9984 -5.680000e-02 -5.680000e-02 -0.9984 -343.7656 21.2937)">
			<stop  offset="0" style="stop-color:#036EB8"/>
			<stop  offset="2.100000e-02" style="stop-color:#466DAB"/>
			<stop  offset="7.410000e-02" style="stop-color:#82678B"/>
			<stop  offset="0.1285" style="stop-color:#A75E6E"/>
			<stop  offset="0.1832" style="stop-color:#C05356"/>
			<stop  offset="0.2383" style="stop-color:#D14843"/>
			<stop  offset="0.2939" style="stop-color:#DC3E36"/>
			<stop  offset="0.3505" style="stop-color:#E3382E"/>
			<stop  offset="0.4095" style="stop-color:#E5352B"/>
			<stop  offset="0.6415" style="stop-color:#F8B62D"/>
			<stop  offset="0.7632" style="stop-color:#8FC31F"/>
		</linearGradient>
		<path style="fill:url(#SVGID_00000016057906129104056040000017986275312235602087_);" d="M135.7,16.8c-1.1,9-8.2,48.5-32,66.9
			c-0.5,0.4-0.9,0.6-1.2,0.8c-0.4,0.2-0.8,0-0.9-0.4c0-0.1-0.1-0.1-0.1-0.4c-1-8.5-2.7-17.4-7.3-24.8c-1.2-1.9-2.6-3.7-4.3-5.2
			c-1.5-1.3-3-2.1-5-2.4c-2.6-0.4-5.3,0.2-7.6,1.8C71,57.7,66.1,66.5,62.7,74.9c-3.3,8.3-6.2,20.2-7.1,24.1l3.1-0.9
			c0.1-0.4,0.1-0.6,0.2-0.8c1-4.6,7.7-33.2,20.2-42c1.6-1.1,3.7-1.6,5.6-1.3c5.8,0.9,9.2,9.3,10.8,14c0.8,2.2,1.4,4.4,1.9,6.7
			c0.5,2.3,0.9,4.6,1.2,6.9c0.1,0.4,0.1,0.9,0.2,1.3c0.1,0.6,0.1,1.2,0.4,1.6c0.3,0.5,0.8,0.8,1.3,0.9c1,0.4,2.2,0.1,3.1-0.4
			c1.7-0.9,3.2-2.2,4.7-3.5c1.3-1.2,2.6-2.4,3.8-3.7c1.2-1.3,2.4-2.7,3.5-4.1c1.1-1.4,2.2-2.9,3.2-4.4c1-1.5,2-3.1,3-4.6
			c0.9-1.6,1.8-3.1,2.7-4.8c0.8-1.6,1.7-3.2,2.4-4.8c0.8-1.6,1.5-3.1,2.2-4.7c0.7-1.5,1.3-3.1,1.9-4.6c0.6-1.4,1.1-2.9,1.6-4.4
			c0.4-1.1,0.8-2.2,1.1-3.3c4-12.1,5.6-20.5,6-23.7L135.7,16.8z"/>
		
			<linearGradient id="SVGID_00000023959615040758115970000000327007717671997359_" gradientUnits="userSpaceOnUse" x1="456.7265" y1="-29.7723" x2="465.0042" y2="-90.7822" gradientTransform="matrix(0.9984 -5.680000e-02 -5.680000e-02 -0.9984 -343.7656 21.2937)">
			<stop  offset="0.1455" style="stop-color:#036EB8"/>
			<stop  offset="0.4103" style="stop-color:#E5352B"/>
			<stop  offset="0.6415" style="stop-color:#F8B62D"/>
			<stop  offset="0.8744" style="stop-color:#8FC31F"/>
		</linearGradient>
		<path style="fill:url(#SVGID_00000023959615040758115970000000327007717671997359_);" d="M104.8,82.1c1.4-1.2,3-2.6,3.6-3.2
			c0.2-0.2,0.4-0.4,0.6-0.6c2.8-3,5-5.8,7.6-9.8c3.6-5.6,6.5-12,8.7-17.6c6-15.2,8.2-29.5,8.7-33.1l-2,1.1c-0.3,2.2-0.5,4-0.9,6.2
			c-0.8,4-1.8,8.2-2.8,12.1c-0.9,3.5-2.1,6.7-3.3,10.1c-1,3-2.2,5.9-3.4,8.8c-1.1,2.5-2.3,5-3.5,7.4c-1.2,2.3-2.7,4.5-4.1,6.7
			c-0.8,1.2-1.7,2.4-2.6,3.6c-0.9,1.1-1.1,1.6-1.9,2.4l0,0c0.5-0.8,1.1-1.6,1.6-2.4c1.4-2.1,2.8-4.3,4.1-6.5c2.5-4.4,4.5-9,6.3-13.7
			c1.6-4.2,3.1-8.5,4.3-12.9c0.8-2.7,1.6-5.4,2.2-8.1c1.1-4.5,2.1-11.1,2.3-12.8L128,21c0,0.2-0.1,0.4-0.1,0.6
			c-0.3,2.1-0.6,4.2-1.1,6.3c-0.7,3.5-1.4,7-2.3,10.4c-1.1,4.4-2.4,8.7-4,13c-1.7,4.8-3.7,9.5-5.9,14c-1.7,3.3-3.5,6.5-5.5,9.6
			c-1.1,1.6-2.1,3.2-3.3,4.7c-0.4,0.6-0.9,1.2-1.3,1.8c-0.2,0.3-0.8,1.3-0.8,1.3c0,0,0.1,0,0.1-0.1C104,82.7,104.2,82.5,104.8,82.1z
			"/>
		
			<linearGradient id="SVGID_00000066484963138800995020000007910917220607417253_" gradientUnits="userSpaceOnUse" x1="424.0113" y1="-34.211" x2="432.2891" y2="-95.221" gradientTransform="matrix(0.9984 -5.680000e-02 -5.680000e-02 -0.9984 -343.7656 21.2937)">
			<stop  offset="0.1455" style="stop-color:#036EB8"/>
			<stop  offset="0.4103" style="stop-color:#E5352B"/>
			<stop  offset="0.6415" style="stop-color:#F8B62D"/>
			<stop  offset="0.8744" style="stop-color:#8FC31F"/>
		</linearGradient>
		<path style="fill:url(#SVGID_00000066484963138800995020000007910917220607417253_);" d="M87.3,56.5c-2.8-1.7-4.3-1.2-4.3-1.2
			c9.9,1.9,13.4,23.6,13.8,26c-0.1-0.1-0.3-0.7-0.8-2.5c-0.4-1.3-2-7.2-2.3-8.1c-1.3-3.8-3-7.8-4.7-10.3c-4.2-6.1-8.9-4-8.9-4
			c8-0.9,12.5,13.1,14.2,19.7s3.5,7.4,3.5,7.4C95.9,67,90.4,58.3,87.3,56.5z"/>
		
			<linearGradient id="SVGID_00000072250099037556183410000018382336025309016504_" gradientUnits="userSpaceOnUse" x1="400.4089" y1="-37.4133" x2="408.6867" y2="-98.4233" gradientTransform="matrix(0.9984 -5.680000e-02 -5.680000e-02 -0.9984 -343.7656 21.2937)">
			<stop  offset="0.1455" style="stop-color:#036EB8"/>
			<stop  offset="0.4103" style="stop-color:#E5352B"/>
			<stop  offset="0.6415" style="stop-color:#F8B62D"/>
			<stop  offset="0.8744" style="stop-color:#8FC31F"/>
		</linearGradient>
		<path style="fill:url(#SVGID_00000072250099037556183410000018382336025309016504_);" d="M57.6,83.9c0.7-2,1.4-3.9,2.1-5.8
			c0.6-1.5,1.2-3,1.8-4.5c0.5-1.1,1-2.2,1.5-3.3c1.3-2.7,2.8-5.3,4.4-7.8c1.4-2.2,3-4.4,4.7-6.4c1.4-1.6,2.9-3.1,4.7-4.2
			c0.2-0.2,0.5-0.3,0.8-0.4c4.4-2.3,9.4-0.2,9.4-0.2c-0.1-0.3-1.8-0.9-2.3-1.1c-0.8-0.2-1.6-0.3-2.4-0.4c-0.5,0-1-0.1-1.5-0.1
			c-0.2,0-0.4,0-0.6,0c-0.3,0-0.6,0-0.9,0.1c-0.3,0-0.7,0.1-1,0.1c-0.1,0-0.3,0.1-0.4,0.1c-0.2,0-0.3,0.1-0.5,0.1
			c-0.4,0.1-0.8,0.2-1.2,0.3l0,0l0,0c-0.2,0.1-0.4,0.1-0.6,0.2c-0.3,0.1-0.5,0.2-0.8,0.3c-0.6,0.2-1.2,0.5-1.8,0.8
			c0,0-0.1,0-0.1,0.1c-0.3,0.1-0.6,0.3-0.8,0.4c-0.2,0.1-0.3,0.2-0.5,0.3c-0.2,0.1-0.4,0.2-0.6,0.4c-2.3,1.5-4.6,3.7-7.2,6.7
			c-7.1,8.3-17.7,37.6-18.6,42.4l3-1c1.2-5.4,4.7-14.9,8.1-23.9c3.5-9.2,9-18.9,16.6-23.9c0.1-0.1,0.2-0.1,0.3-0.2
			c0.3-0.2,0.6-0.4,0.9-0.6c0.1-0.1,0.2-0.1,0.4-0.2c0.2-0.1,0.3-0.2,0.5-0.3v0c-13.4,7.4-23.2,44.6-24.1,48.5l2.2-0.6
			c0.6-2.5,1.6-6.2,2.4-8.7C56,88.7,56.8,86.3,57.6,83.9z"/>
	</g>
</g>
</svg>
