<?xml version="1.0" encoding="utf-8"?>
<!-- Generator: Adobe Illustrator 26.0.1, SVG Export Plug-In . SVG Version: 6.00 Build 0)  -->
<svg version="1.1" id="图层_1" xmlns="http://www.w3.org/2000/svg" xmlns:xlink="http://www.w3.org/1999/xlink" x="0px" y="0px"
	 viewBox="0 0 354.41 212.79" style="enable-background:new 0 0 354.41 212.79;" xml:space="preserve">
<style type="text/css">
	.st0{fill:none;stroke:#9D318D;stroke-miterlimit:10;}
	.st1{fill:#2C3F95;}
	.st2{fill:url(#SVGID_1_);}
	.st3{fill:url(#SVGID_00000039130244690278762510000002604307450282064257_);}
	.st4{fill:url(#SVGID_00000147906668324318243460000010820814658949982376_);}
	.st5{fill:url(#SVGID_00000070838393364415643650000010818380288054749370_);}
	.st6{fill:url(#SVGID_00000176036825346521925250000009856961840284921996_);}
	.st7{fill:#2C3F95;stroke:#2C3F95;stroke-width:0.75;stroke-miterlimit:10;}
	.st8{fill:#2C3F95;stroke:#2C3F95;stroke-width:0.5;stroke-miterlimit:10;}
</style>
<g>
	<path class="st0" d="M205.55,44.63"/>
	<g>
		<path class="st1" d="M194.75,47.42c-0.17,0-0.33-0.12-0.38-0.29c-0.05-0.21,0.07-0.42,0.28-0.48l9.68-2.26
			c0.21-0.05,0.42,0.07,0.48,0.28c0.05,0.21-0.07,0.42-0.28,0.48l-9.68,2.26C194.82,47.41,194.78,47.42,194.75,47.42z"/>
	</g>
	<linearGradient id="SVGID_1_" gradientUnits="userSpaceOnUse" x1="120.8421" y1="79.3997" x2="167.5338" y2="113.1898">
		<stop  offset="0" style="stop-color:#036EB8"/>
		<stop  offset="0.021" style="stop-color:#466DAB"/>
		<stop  offset="0.0741" style="stop-color:#82678B"/>
		<stop  offset="0.1285" style="stop-color:#A75E6E"/>
		<stop  offset="0.1832" style="stop-color:#C05356"/>
		<stop  offset="0.2383" style="stop-color:#D14843"/>
		<stop  offset="0.2939" style="stop-color:#DC3E36"/>
		<stop  offset="0.3505" style="stop-color:#E3382E"/>
		<stop  offset="0.4095" style="stop-color:#E5352B"/>
		<stop  offset="0.6415" style="stop-color:#F8B62D"/>
		<stop  offset="0.7632" style="stop-color:#8FC31F"/>
	</linearGradient>
	<polygon class="st2" points="157.11,95.74 156.98,94.69 155.54,94.56 154.29,93.77 127.58,71.32 125.75,69.43 151.02,113.02 
		153.05,116.23 153.64,116.41 154.03,115.51 	"/>
	<path class="st1" d="M227.89,65.77l-15.47,14.64l-58.79,36l3.02-22.1c0,0,1.37,0.25,3.14-0.2l2.42-1.14l64.61-27.57l1.98-0.83
		c0,0-0.13,0.3-0.54,0.79C228.15,65.51,227.89,65.77,227.89,65.77z"/>
	<path class="st1" d="M156.69,94.26c-1.36-0.21-2.23-0.77-2.28-0.8c-9.08-7.23-26.62-21.67-28.04-24.61
		c-0.47-0.97-0.54-1.82-0.21-2.53c0.61-1.31,2.42-1.76,2.44-1.77l22.58-6.02c0.21-0.06,0.33-0.27,0.28-0.48
		c-0.06-0.21-0.27-0.33-0.48-0.28l-22.58,6.02c-0.09,0.02-2.18,0.55-2.96,2.19c-0.44,0.93-0.37,2.01,0.21,3.21
		c1.85,3.83,27.18,24.02,28.28,24.9c0.07,0.05,1.08,0.71,2.65,0.95L156.69,94.26L156.69,94.26z"/>
	<path class="st1" d="M161.24,94.28c3.89-1.9,65.9-28.17,66.52-28.44c0.04-0.02,0.07-0.04,0.1-0.06c0.06-0.05,1.4-1.22,1.38-2.84
		c-0.01-0.99-0.52-1.91-1.52-2.73c-2.97-2.45-11.81-10.51-11.9-10.59c-0.16-0.15-0.41-0.13-0.55,0.03
		c-0.15,0.16-0.13,0.41,0.03,0.56c0.09,0.08,8.94,8.15,11.93,10.62c0.81,0.67,1.22,1.38,1.23,2.13c0.01,1.11-0.86,2.01-1.07,2.21
		c-2.3,0.97-62.64,26.54-66.5,28.43c-1.63,0.79-3.09,0.85-4.21,0.68l0,0.01l-0.09,0.77c0.35,0.05,0.73,0.09,1.13,0.09
		C158.76,95.12,159.96,94.91,161.24,94.28z"/>
	<g>
		
			<linearGradient id="SVGID_00000098901537245804668210000003776321161523675053_" gradientUnits="userSpaceOnUse" x1="556.6713" y1="198.4433" x2="563.7413" y2="250.552" gradientTransform="matrix(0.9984 -0.0568 0.0568 0.9984 -379.264 -147.2535)">
			<stop  offset="0" style="stop-color:#036EB8"/>
			<stop  offset="0.021" style="stop-color:#466DAB"/>
			<stop  offset="0.0741" style="stop-color:#82678B"/>
			<stop  offset="0.1285" style="stop-color:#A75E6E"/>
			<stop  offset="0.1832" style="stop-color:#C05356"/>
			<stop  offset="0.2383" style="stop-color:#D14843"/>
			<stop  offset="0.2939" style="stop-color:#DC3E36"/>
			<stop  offset="0.3505" style="stop-color:#E3382E"/>
			<stop  offset="0.4095" style="stop-color:#E5352B"/>
			<stop  offset="0.6415" style="stop-color:#F8B62D"/>
			<stop  offset="0.7632" style="stop-color:#8FC31F"/>
		</linearGradient>
		<path style="fill:url(#SVGID_00000098901537245804668210000003776321161523675053_);" d="M224.87,8.56
			c-0.94,7.66-6.97,41.45-27.29,57.18c-0.44,0.34-0.78,0.55-1.04,0.67c-0.32,0.14-0.68-0.02-0.79-0.33
			c-0.02-0.05-0.04-0.13-0.07-0.37c-0.83-7.22-2.32-14.88-6.24-21.15c-1.01-1.62-2.21-3.14-3.65-4.42c-1.25-1.12-2.59-1.8-4.25-2.06
			c-2.26-0.35-4.55,0.2-6.46,1.54c-5.49,3.87-9.63,11.38-12.54,18.62c-2.85,7.09-5.32,17.22-6.07,20.57l2.61-0.75
			c0.07-0.32,0.12-0.56,0.14-0.65c0.85-3.93,6.59-28.39,17.21-35.86c1.39-0.98,3.11-1.39,4.74-1.14c4.94,0.76,7.86,7.92,9.27,11.98
			c0.65,1.86,1.17,3.77,1.61,5.69c0.44,1.94,0.77,3.91,1.05,5.88c0.05,0.37,0.1,0.74,0.15,1.11c0.06,0.48,0.08,0.99,0.34,1.41
			c0.26,0.4,0.69,0.66,1.14,0.81c0.87,0.29,1.84,0.1,2.62-0.34c1.44-0.81,2.73-1.9,3.97-2.99c1.13-0.99,2.21-2.04,3.24-3.14
			c1.05-1.12,2.05-2.28,3-3.48c0.97-1.22,1.89-2.47,2.77-3.75c0.89-1.29,1.73-2.6,2.54-3.94c0.8-1.33,1.57-2.68,2.31-4.05
			c0.72-1.35,1.41-2.71,2.08-4.09c0.64-1.34,1.26-2.69,1.85-4.05c0.56-1.3,1.1-2.61,1.62-3.93c0.49-1.24,0.95-2.48,1.4-3.74
			c0.33-0.93,0.65-1.87,0.96-2.81c3.41-10.38,4.74-17.54,5.15-20.24L224.87,8.56z"/>
		
			<linearGradient id="SVGID_00000006668157929800290340000016582373121771847299_" gradientUnits="userSpaceOnUse" x1="575.3209" y1="195.913" x2="582.3909" y2="248.0217" gradientTransform="matrix(0.9984 -0.0568 0.0568 0.9984 -379.264 -147.2535)">
			<stop  offset="0.1455" style="stop-color:#036EB8"/>
			<stop  offset="0.4103" style="stop-color:#E5352B"/>
			<stop  offset="0.6415" style="stop-color:#F8B62D"/>
			<stop  offset="0.8744" style="stop-color:#8FC31F"/>
		</linearGradient>
		<path style="fill:url(#SVGID_00000006668157929800290340000016582373121771847299_);" d="M198.45,64.37
			c1.22-1.03,2.55-2.26,3.04-2.78c0.18-0.19,0.35-0.37,0.52-0.56c2.36-2.55,4.27-4.95,6.46-8.33c3.11-4.79,5.59-10.28,7.44-15.01
			c5.11-13.02,7.01-25.18,7.43-28.31l-1.71,0.95c-0.28,1.87-0.42,3.43-0.77,5.28c-0.64,3.42-1.52,6.99-2.41,10.36
			c-0.78,2.97-1.77,5.75-2.77,8.65c-0.88,2.54-1.85,5.05-2.92,7.52c-0.93,2.14-1.93,4.24-3.03,6.3c-1.05,1.98-2.26,3.87-3.51,5.72
			c-0.7,1.05-1.43,2.1-2.18,3.12c-0.74,0.94-0.95,1.33-1.59,2.05l-0.01-0.02c0.45-0.69,0.89-1.38,1.34-2.06
			c1.2-1.83,2.41-3.66,3.48-5.58c2.1-3.74,3.82-7.69,5.36-11.7c1.39-3.62,2.61-7.3,3.72-11.01c0.68-2.29,1.32-4.6,1.88-6.93
			c0.92-3.86,1.75-9.47,1.96-10.94l-1.9,1.03c-0.02,0.17-0.04,0.34-0.07,0.51c-0.25,1.81-0.56,3.61-0.9,5.4
			c-0.57,3-1.24,5.97-2,8.92c-0.97,3.75-2.09,7.47-3.38,11.12c-1.45,4.09-3.11,8.11-5.05,11.99c-1.42,2.84-3,5.56-4.72,8.19
			c-0.89,1.37-1.83,2.72-2.79,4.05c-0.37,0.51-0.75,1.03-1.12,1.54c-0.16,0.22-0.7,1.07-0.7,1.07c0.03-0.01,0.07-0.03,0.1-0.04
			C197.81,64.84,198,64.74,198.45,64.37z"/>
		
			<linearGradient id="SVGID_00000067214523453169981920000015094159690986387593_" gradientUnits="userSpaceOnUse" x1="547.3953" y1="199.7019" x2="554.4653" y2="251.8106" gradientTransform="matrix(0.9984 -0.0568 0.0568 0.9984 -379.264 -147.2535)">
			<stop  offset="0.1455" style="stop-color:#036EB8"/>
			<stop  offset="0.4103" style="stop-color:#E5352B"/>
			<stop  offset="0.6415" style="stop-color:#F8B62D"/>
			<stop  offset="0.8744" style="stop-color:#8FC31F"/>
		</linearGradient>
		<path style="fill:url(#SVGID_00000067214523453169981920000015094159690986387593_);" d="M183.56,42.48
			c-2.41-1.46-3.69-1.04-3.69-1.04c8.44,1.63,11.44,20.15,11.75,22.23c-0.06-0.12-0.25-0.58-0.72-2.11
			c-0.34-1.12-1.72-6.14-2.01-6.96c-1.14-3.28-2.53-6.67-4.01-8.79c-3.62-5.2-7.59-3.4-7.59-3.4c6.84-0.76,10.67,11.22,12.14,16.82
			c1.47,5.6,3,6.32,3,6.32C190.85,51.43,186.19,44.07,183.56,42.48z"/>
		
			<linearGradient id="SVGID_00000013898552628149235410000006085174925815980986_" gradientUnits="userSpaceOnUse" x1="527.2402" y1="202.4365" x2="534.3103" y2="254.5452" gradientTransform="matrix(0.9984 -0.0568 0.0568 0.9984 -379.264 -147.2535)">
			<stop  offset="0.1455" style="stop-color:#036EB8"/>
			<stop  offset="0.4103" style="stop-color:#E5352B"/>
			<stop  offset="0.6415" style="stop-color:#F8B62D"/>
			<stop  offset="0.8744" style="stop-color:#8FC31F"/>
		</linearGradient>
		<path style="fill:url(#SVGID_00000013898552628149235410000006085174925815980986_);" d="M158.17,65.88
			c0.57-1.67,1.16-3.33,1.79-4.98c0.49-1.28,1-2.55,1.54-3.81c0.41-0.96,0.83-1.91,1.27-2.85c1.09-2.31,2.39-4.53,3.77-6.68
			c1.22-1.9,2.53-3.75,4.03-5.44c1.18-1.34,2.48-2.62,4-3.56c0.22-0.13,0.44-0.26,0.66-0.38c3.8-1.96,8-0.21,8-0.21
			c-0.08-0.25-1.5-0.8-1.97-0.9c-0.67-0.15-1.36-0.26-2.05-0.31c-0.43-0.03-0.86-0.04-1.28-0.04c-0.18,0-0.36,0.01-0.54,0.01
			c-0.24,0.01-0.49,0.03-0.74,0.06c-0.28,0.03-0.56,0.07-0.85,0.12c-0.11,0.02-0.23,0.04-0.34,0.06c-0.15,0.03-0.3,0.06-0.45,0.1
			c-0.36,0.08-0.71,0.17-1.05,0.27c0,0,0,0,0,0c0,0,0,0,0,0c-0.16,0.05-0.31,0.1-0.47,0.15c-0.23,0.08-0.46,0.15-0.69,0.24
			c-0.51,0.2-1.02,0.42-1.51,0.66c-0.04,0.02-0.07,0.04-0.11,0.05c-0.24,0.12-0.48,0.25-0.71,0.38c-0.14,0.08-0.28,0.16-0.41,0.24
			c-0.16,0.1-0.32,0.2-0.48,0.31c-1.93,1.26-3.91,3.14-6.15,5.76c-6.07,7.08-15.1,32.09-15.92,36.22l2.55-0.83
			c0.99-4.58,3.99-12.72,6.91-20.42c2.99-7.89,7.68-16.13,14.18-20.43c0.1-0.06,0.19-0.13,0.29-0.19c0.27-0.17,0.54-0.33,0.81-0.48
			c0.11-0.06,0.21-0.12,0.32-0.18c0.14-0.07,0.27-0.15,0.41-0.22l0,0.01c-11.45,6.35-19.82,38.11-20.63,41.39l1.83-0.56
			c0.55-2.13,1.4-5.31,2.02-7.42C156.83,69.97,157.48,67.92,158.17,65.88z"/>
	</g>
	<g>
		<path class="st7" d="M79.03,134.75h6.84l-0.75,2.14h13.85v6.62h-7.54v2.88h8.66v6.74h-7.97c1.14,0.98,2.35,1.78,3.64,2.39
			c1.28,0.61,2.73,1.14,4.33,1.59v7.23c-2.67-0.61-4.95-1.42-6.82-2.42c-1.87-1-3.61-2.48-5.21-4.44c-1.64,1.96-3.38,3.44-5.21,4.44
			c-1.84,1-4.11,1.81-6.82,2.42v-7.23c1.6-0.45,3.05-0.98,4.33-1.59c1.28-0.61,2.49-1.41,3.64-2.39h-7.97v-6.74h8.56v-2.88h-8.61
			L79.03,134.75z M121.54,164.83v25.3H78.66v-25.3H121.54z M114.59,174.51v-3H85.61v3H114.59z M114.59,183.45v-3H85.61v3H114.59z
			 M102.34,136.59h20.48v25.73h-20.48V136.59z M116.14,154.66v-10.41h-7.11v10.41H116.14z"/>
		<path class="st7" d="M158.6,171.81c-4.03-7.47-6.19-15.62-6.47-24.44h-2.73c-1.14,6.29-3.37,12.07-6.68,17.33h2.3v18.01h7.06v7.9
			h-13.96v-19.85c-3.24,3.63-7.01,6.64-11.28,9v-9.55c4.14-2.9,7.49-6.24,10.08-10.01c2.58-3.78,4.45-8.05,5.59-12.83h-15.13v-7.9
			h20.53v-4.9h7.06v4.9h20.53v7.9h-16.47c0.25,6.78,1.73,12.97,4.44,18.56l5.08-12.86h6.79l-5.35,13.54h-6.2
			c2.82,5.63,6.72,10.31,11.71,14.03v9.86C168.26,185.51,162.63,179.28,158.6,171.81z"/>
		<path class="st7" d="M180.58,160.23h5.03c0,10.53-0.64,20.07-1.93,28.6h-5.29C179.84,179.61,180.58,170.07,180.58,160.23z
			 M178.97,149.94h7.7v-5.33c-2.28,0.12-4.62,0.18-7.01,0.18v-7.47c5.7,0,12.01-0.59,18.93-1.78v7.53
			c-2.42,0.45-4.12,0.74-5.08,0.86v6h6.1v7.47h-6.1v4.65l5.99,3.37v8.76l-5.99-3.37v20.4h-6.47v-33.81h-8.07V149.94z M200.68,173.1
			l14.81-3.37v-34.18h6.95v32.65l5.29-1.23v8.21l-5.29,1.23v14.82h-6.95v-13.29l-14.81,3.37V173.1z M201.16,152.94l10.8,4.29v7.66
			l-10.8-4.29V152.94z M203.3,139.04l10.8,4.29v7.66l-10.8-4.29V139.04z"/>
		<path class="st7" d="M229.82,164.28l5.56-1.53v-11.33h-5.03v-7.72h5.03v-8.51h6.95v8.51h5.08v7.72h-5.08v9.49l5.61-1.53v8.51
			l-5.61,1.53v21.19h-11.07v-7.41h4.12v-11.94l-5.56,1.53V164.28z M258.06,176.77c-3.92-5.35-6.6-12.23-8.02-20.64h10.43v-8.21
			h-10.8v-7.47h10.8v-4.96h6.84v4.96h11.12v7.47h-11.12v8.21h10.48c-0.75,8-3.98,15.13-9.68,21.38c3.32,2.82,6.58,4.72,9.79,5.7
			v8.15c-6.2-2.82-11.14-5.86-14.81-9.13c-4.46,3.68-9.61,6.57-15.45,8.7v-8.15C251.66,180.9,255.13,178.89,258.06,176.77z
			 M263.19,172.42c2.78-2.9,4.85-5.96,6.2-9.19H258C259.15,166.38,260.87,169.44,263.19,172.42z"/>
	</g>
	<g>
		<path class="st8" d="M77.28,205.32l4.17-6.46h-3.79v-0.85h5.04v0.6l-4.17,6.46h4.2v0.85h-5.45V205.32z"/>
		<path class="st8" d="M90.54,198.01h1.01v3.31h3.68v-3.31h1.01v7.91h-1.01v-3.72h-3.68v3.72h-1.01V198.01z"/>
		<path class="st8" d="M104.66,198.01h1.01v7.91h-1.01V198.01z"/>
		<path class="st8" d="M124.06,202.85l-2.38-4.84h1.07l1.02,2.23c0.25,0.58,0.49,1.13,0.77,1.72h0.05c0.27-0.59,0.55-1.14,0.79-1.72
			l1.02-2.23h1.04l-2.38,4.84v3.07h-1.01V202.85z"/>
		<path class="st8" d="M134.65,198.01h1.01v7.91h-1.01V198.01z"/>
		<path class="st8" d="M154.41,198.86h-2.39v-0.85h5.79v0.85h-2.39v7.06h-1.01V198.86z"/>
		<path class="st8" d="M165.49,198.01h4.56v0.85h-3.55v2.48h3v0.85h-3v2.88h3.67v0.85h-4.68V198.01z"/>
		<path class="st8" d="M177.65,201.97c0-2.55,1.5-4.11,3.51-4.11c0.96,0,1.71,0.47,2.18,0.98l-0.55,0.66
			c-0.42-0.44-0.94-0.75-1.61-0.75c-1.49,0-2.49,1.22-2.49,3.19c0,1.99,0.95,3.23,2.45,3.23c0.76,0,1.33-0.33,1.83-0.89l0.55,0.63
			c-0.62,0.73-1.4,1.14-2.43,1.14C179.13,206.06,177.65,204.54,177.65,201.97z"/>
		<path class="st8" d="M191.26,198.01h1.01v3.31h3.68v-3.31h1.01v7.91h-1.01v-3.72h-3.68v3.72h-1.01V198.01z"/>
		<path class="st8" d="M205.38,198.01h1.04l2.86,4.97l0.85,1.64h0.05c-0.05-0.8-0.13-1.69-0.13-2.52v-4.09h0.96v7.91h-1.04
			l-2.86-4.98l-0.85-1.63h-0.05c0.05,0.8,0.13,1.64,0.13,2.47v4.14h-0.96V198.01z"/>
		<path class="st8" d="M218.98,201.93c0-2.53,1.39-4.07,3.38-4.07c1.99,0,3.38,1.54,3.38,4.07c0,2.53-1.39,4.13-3.38,4.13
			C220.38,206.06,218.98,204.47,218.98,201.93z M224.7,201.93c0-1.97-0.93-3.19-2.34-3.19c-1.41,0-2.34,1.22-2.34,3.19
			c0,1.97,0.93,3.24,2.34,3.24C223.77,205.18,224.7,203.91,224.7,201.93z"/>
		<path class="st8" d="M233.71,198.01h1.01v7.06h3.45v0.85h-4.46V198.01z"/>
		<path class="st8" d="M245.06,201.93c0-2.53,1.39-4.07,3.38-4.07c1.99,0,3.38,1.54,3.38,4.07c0,2.53-1.39,4.13-3.38,4.13
			C246.46,206.06,245.06,204.47,245.06,201.93z M250.78,201.93c0-1.97-0.93-3.19-2.34-3.19c-1.41,0-2.34,1.22-2.34,3.19
			c0,1.97,0.93,3.24,2.34,3.24C249.86,205.18,250.78,203.91,250.78,201.93z"/>
		<path class="st8" d="M259.34,201.97c0-2.55,1.53-4.11,3.63-4.11c1.1,0,1.82,0.5,2.28,0.98l-0.55,0.66
			c-0.4-0.41-0.91-0.75-1.7-0.75c-1.59,0-2.62,1.22-2.62,3.19c0,1.99,0.94,3.23,2.63,3.23c0.57,0,1.11-0.17,1.43-0.46v-2.06h-1.68
			v-0.83h2.59v3.33c-0.51,0.53-1.37,0.92-2.44,0.92C260.82,206.06,259.34,204.54,259.34,201.97z"/>
		<path class="st8" d="M274.78,202.85l-2.38-4.84h1.08l1.02,2.23c0.25,0.58,0.49,1.13,0.77,1.72h0.05c0.27-0.59,0.55-1.14,0.79-1.72
			l1.02-2.23h1.04l-2.38,4.84v3.07h-1.01V202.85z"/>
	</g>
</g>
<path class="st0" d="M628.64-482.06"/>
<g>
	<path class="st1" d="M617.84-479.28c-0.17,0-0.33-0.12-0.38-0.29c-0.05-0.21,0.07-0.42,0.28-0.48l9.68-2.26
		c0.21-0.05,0.42,0.07,0.48,0.28c0.05,0.21-0.07,0.42-0.28,0.48l-9.68,2.26C617.9-479.28,617.87-479.28,617.84-479.28z"/>
</g>
</svg>
